<?xml version="1.0" encoding="utf-8"?>
<!-- Generator: Adobe Illustrator 22.0.1, SVG Export Plug-In . SVG Version: 6.00 Build 0)  -->
<svg version="1.1" id="Capa_1" xmlns="http://www.w3.org/2000/svg" xmlns:xlink="http://www.w3.org/1999/xlink" x="0px" y="0px"
	 viewBox="0 0 512 512" style="enable-background:new 0 0 512 512;" xml:space="preserve">
<style type="text/css">
	.st0{fill:#00AEEF;}
</style>
<g>
	<path class="st0" d="M367,435.1v-46.8c0-1.4-0.8-2.7-2.1-3.2c-1.3-0.6-2.8-0.3-3.8,0.6l-12.7,11.8c-1.4,1.3-1.5,3.5-0.2,4.9
		s3.5,1.5,4.9,0.2l6.8-6.3v38.8c0,1.9,1.6,3.5,3.5,3.5C365.4,438.6,367,437,367,435.1z"/>
	<path class="st0" d="M502.3,257.8H381.6c-1.9,0-3.5,1.6-3.5,3.5v12.6h-12.8c-1.9,0-3.5,1.6-3.5,3.5v16.1c0,1.9,1.6,3.5,3.5,3.5h4.1
		v9.1h-2.3c-1.9,0-3.5,1.6-3.5,3.5v16.1c0,1.9,1.6,3.5,3.5,3.5h3.5v9.1h-5.3c-1.9,0-3.5,1.6-3.5,3.5v7.6
		c-33.7,0.8-60.9,28.4-60.9,62.3c0,8.2,1.6,16,4.5,23.2h-75.9c-1.9,0-3.5,1.6-3.5,3.5v16.1c0,1.9,1.6,3.5,3.5,3.5h2.4v16.1h261.2
		c1.9,0,3.5-1.6,3.5-3.5v-16.1c0-1.9-1.6-3.5-3.5-3.5h-6.4V442h5.8c1.9,0,3.5-1.6,3.5-3.5v-16.1c0-1.9-1.6-3.5-3.5-3.5h-2.9v-9.1
		h2.3c1.9,0,3.5-1.6,3.5-3.5v-16.1c0-1.9-1.6-3.5-3.5-3.5h-10.5v-9.1h11.1c1.9,0,3.5-1.6,3.5-3.5v-16.1c0-1.9-1.6-3.5-3.5-3.5h-2.9
		v-9.1h5.3c1.9,0,3.5-1.6,3.5-3.5v-16.1c0-1.9-1.6-3.5-3.5-3.5h-3.5v-9.1h2.3c1.9,0,3.5-1.6,3.5-3.5v-16.1c0-1.9-1.6-3.5-3.5-3.5
		h-4.1v-9.1h12.8c1.9,0,3.5-1.6,3.5-3.5v-16.1C505.8,259.4,504.2,257.8,502.3,257.8z M409.2,442.5l-6-6c2.7-4.3,4.7-9.1,5.9-14.1
		h8.4C416.1,429.8,413.2,436.5,409.2,442.5z M332.4,457.8l6-6c4.3,2.7,9.1,4.7,14.1,5.9v8.4C345.2,464.6,338.4,461.8,332.4,457.8z
		 M307.9,411.8c0-1.3,0.1-2.5,0.1-3.7h8.3c-0.1,1.2-0.2,2.5-0.2,3.7c0,1.3,0.1,2.5,0.2,3.7H308C307.9,414.3,307.9,413,307.9,411.8z
		 M317.4,401H309c1.4-7.3,4.3-14.1,8.3-20.1l6,6C320.6,391.3,318.6,395.9,317.4,401z M317.4,422.4c1.2,5.1,3.2,9.8,5.9,14.1l-6,6
		c-4-6-6.9-12.8-8.3-20.1H317.4z M321.6,448.1l5.8-5.8c1.6,1.9,3.4,3.6,5.3,5.3l-5.8,5.8C325,451.8,323.2,450,321.6,448.1z
		 M323.1,411.8c0-22.1,18-40.1,40.1-40.1s40.1,18,40.1,40.1s-18,40.1-40.1,40.1C341.1,451.8,323.1,433.8,323.1,411.8z M363.2,364.6
		c-1.3,0-2.5,0.1-3.7,0.2v-8.3c1.2-0.1,2.5-0.1,3.7-0.1c1.3,0,2.5,0.1,3.7,0.1v8.3C365.7,364.8,364.5,364.6,363.2,364.6z
		 M352.5,365.9c-5.1,1.2-9.8,3.2-14.1,5.9l-6-6c6-4,12.8-6.9,20.1-8.3V365.9L352.5,365.9z M388.1,451.8l6,6c-6,4-12.8,6.9-20.1,8.3
		v-8.4C379,456.4,383.8,454.4,388.1,451.8z M399.6,453.4l-5.8-5.8c1.9-1.6,3.6-3.4,5.3-5.3l5.8,5.8
		C403.3,450,401.5,451.8,399.6,453.4z M410.2,408h8.3c0.1,1.2,0.1,2.5,0.1,3.7s-0.1,2.5-0.1,3.7h-8.3c0.1-1.2,0.2-2.5,0.2-3.7
		C410.3,410.5,410.3,409.3,410.2,408z M409.1,401c-1.2-5.1-3.2-9.8-5.9-14.1l6-6c4,6,6.9,12.8,8.3,20.1H409.1L409.1,401z M399,381.3
		c-1.6-1.9-3.4-3.6-5.3-5.3l5.8-5.8c1.9,1.6,3.6,3.4,5.3,5.3L399,381.3z M394,365.8l-6,6c-4.3-2.7-9.1-4.7-14.1-5.9v-8.4
		C381.3,358.9,388.1,361.8,394,365.8z M326.8,370.1l5.8,5.8c-1.9,1.6-3.6,3.4-5.3,5.3l-5.8-5.8C323.2,373.5,325,371.8,326.8,370.1z
		 M232.9,441.9h75.8c1.8,3.2,3.8,6.3,6.2,9.1h-81.9v-9.1H232.9z M238.8,467.1V458h82.7c3.9,3.6,8.4,6.6,13.1,9.1H238.8z
		 M359.5,466.9v-8.3c1.2,0.1,2.5,0.2,3.7,0.2c1.3,0,2.5-0.1,3.7-0.2v8.3c-1.2,0.1-2.5,0.1-3.7,0.1C362,467.1,360.7,467,359.5,466.9z
		 M489.5,467.1h-97.6c4.8-2.5,9.2-5.5,13.1-9.1h84.5V467.1z M479.6,451h-67.9c2.3-2.8,4.4-5.9,6.2-9.1h61.8v9.1H479.6z M488.9,434.9
		h-67.8c1.2-2.9,2.1-6,2.9-9.1h64.9L488.9,434.9L488.9,434.9z M482.5,418.8h-57.3c0.3-2.3,0.4-4.7,0.4-7.1c0-0.7,0-1.4-0.1-2h56.9
		L482.5,418.8L482.5,418.8z M488.3,402.8h-63.4c-0.5-3.1-1.1-6.2-2-9.1h65.4V402.8z M474.3,386.6h-54c-1.4-3.2-3.1-6.2-5-9.1h59
		V386.6z M488.9,370.5H410c-3-3.4-6.3-6.4-10-9.1h88.9V370.5z M482.5,354.4h-94.7c-5.9-2.5-12.3-4.2-19-4.8v-4.3h5.2l0,0h108.5
		V354.4z M491.2,338.3H377.5v-9.1h110.2h3.5L491.2,338.3L491.2,338.3z M484.2,322.3H370.5v-9.1h2.3h111.4V322.3z M490.1,306.1H376.4
		V297H486h4.1L490.1,306.1L490.1,306.1z M482.5,290H368.8v-9.1h113.7V290z M498.8,273.9H486H385.1v-9.1h113.7V273.9z"/>
</g>
<g>
	<path class="st0" d="M261,32H51c-19.3,0-35,15.7-35,35v378c0,19.3,15.7,35,35,35h210c19.3,0,35-15.7,35-35V67
		C296,47.7,280.3,32,261,32z M282,445c0,11.6-9.4,21-21,21H51c-11.6,0-21-9.4-21-21V67c0-11.6,9.4-21,21-21h210c11.6,0,21,9.4,21,21
		V445z"/>
	<path class="st0" d="M191,431H65V151c0-3.9-3.1-7-7-7s-7,3.1-7,7v287c0,3.9,3.1,7,7,7h133c3.9,0,7-3.1,7-7S194.9,431,191,431z"/>
	<path class="st0" d="M121,81h126v280c0,3.9,3.1,7,7,7s7-3.1,7-7V74c0-3.9-3.1-7-7-7H121c-3.9,0-7,3.1-7,7C114,77.9,117.1,81,121,81
		z"/>
	<path class="st0" d="M180.9,298c20.5,0,37.2-16.7,37.2-37.3c0-40.1-56.2-72.4-58.6-73.8c-2.1-1.2-4.8-1.2-6.9,0
		c-2.4,1.4-58.6,33.6-58.6,73.8c0,20.6,16.7,37.3,37.2,37.3c6.3,0,12.5-1.6,17.9-4.6v4.6c0,3.9-3.1,7-7,7h-7c-3.9,0-7,3.1-7,7
		s3.1,7,7,7h42c3.9,0,7-3.1,7-7s-3.1-7-7-7h-7c-3.9,0-7-3.1-7-7v-4.6C168.4,296.3,174.5,298,180.9,298z M131.1,284
		c-12.8,0-23.2-10.4-23.2-23.3c0-27.1,36.5-52.2,48.1-59.5c11.5,7.3,48.1,32.4,48.1,59.5c0,12.8-10.4,23.3-23.2,23.3
		c-7.6,0-14.8-3.8-19.1-10.1c-1.3-1.9-3.5-3-5.8-3c-2.3,0-4.5,1.1-5.8,3C145.9,280.2,138.7,284,131.1,284z"/>
	<path class="st0" d="M79,119.1c3.7,2.5,8.1,3.9,12.6,3.9c12.3,0,22.3-9.9,22.3-22.2c0-9.7-5.5-19.4-16.4-29
		c-7.5-6.6-14.9-10.8-15.2-11c-2.1-1.2-4.7-1.2-6.8,0c-0.3,0.2-7.7,4.3-15.2,11c-10.9,9.6-16.4,19.4-16.4,29
		c0,12.2,10,22.2,22.3,22.2C71,123,75.4,121.6,79,119.1z M58.1,100.8c0-9.8,13.2-20.6,21-25.7c7.8,5.1,21,15.8,21,25.7
		c0,4.5-3.7,8.2-8.3,8.2c-2.8,0-5.3-1.3-6.9-3.6c-1.3-1.9-3.5-3-5.7-3c-2.3,0-4.4,1.1-5.7,3c-1.6,2.2-4.1,3.6-6.9,3.6
		C61.8,109,58.1,105.3,58.1,100.8z"/>
	<path class="st0" d="M86.1,123H71.9c-3.9,0-7,3.1-7,7s3.1,7,7,7h14.2c3.9,0,7-3.1,7-7S90,123,86.1,123z"/>
	<path class="st0" d="M245.7,389c-4.6,0-9,1.4-12.6,3.9c-3.7-2.5-8.1-3.9-12.6-3.9c-12.3,0-22.3,9.9-22.3,22.2
		c0,9.7,5.5,19.4,16.4,29c7.5,6.6,14.9,10.8,15.2,11c1.1,0.6,2.2,0.9,3.4,0.9c1.2,0,2.4-0.3,3.4-0.9c0.3-0.2,7.7-4.3,15.2-11
		c10.9-9.6,16.4-19.4,16.4-29C268,398.9,258,389,245.7,389z M233,436.8c-7.8-5.1-21-15.8-21-25.7c0-4.5,3.7-8.2,8.3-8.2
		c2.8,0,5.3,1.3,6.9,3.6c1.3,1.9,3.5,3,5.7,3c2.3,0,4.4-1.1,5.7-3c1.6-2.2,4.1-3.6,6.9-3.6c4.6,0,8.3,3.7,8.3,8.2
		C254,421,240.8,431.7,233,436.8z"/>
	<path class="st0" d="M240.1,374.9h-14.2c-3.9,0-7,3.1-7,7s3.1,7,7,7h14.2c3.9,0,7-3.1,7-7S244,374.9,240.1,374.9z"/>
</g>
</svg>
