<?xml version="1.0" encoding="utf-8"?>
<!-- Generator: Adobe Illustrator 22.0.1, SVG Export Plug-In . SVG Version: 6.00 Build 0)  -->
<svg version="1.1" id="Layer_1" xmlns="http://www.w3.org/2000/svg" xmlns:xlink="http://www.w3.org/1999/xlink" x="0px" y="0px"
	 viewBox="0 0 64 64" style="enable-background:new 0 0 64 64;" xml:space="preserve">
<style type="text/css">
	.st0{fill:#00AEEF;}
</style>
<g>
	<path class="st0" d="M10.1,10.1C16.1,4,24.1,1,32,1s15.9,3,22,9.1S63,24.1,63,32s-3,15.9-9.1,22S39.9,63,32,63s-15.8-3-21.9-9.1
		C4,47.9,1,39.9,1,32S4,16.1,10.1,10.1z M5.1,28.8c1.2,0.3,2.5,0.6,3.6,1c0-0.1,0-0.1-0.1-0.2c-0.5-1-0.1-2.1,0.9-2.6
		c0.9-0.5,2.1-0.1,2.5,0.9c0.5,1,0.6,2.2,0.6,3.5c0.6,0.3,1.3,0.6,1.9,1c0.5,0.3,1,0.5,1.4,0.8c-0.1-0.1-0.1-0.3-0.1-0.5
		c-0.3-1,0.2-2.1,1.2-2.4c1-0.3,2.1,0.1,2.4,1.2c0.4,1.1,0.3,2.6,0,4.1c1.2,0.9,2.3,1.9,3.5,2.8c0.1-0.3,0.1-0.5,0.1-0.7
		c-0.1-1.1,0.8-2,1.9-2.1c1-0.1,2,0.8,2,1.8c0.1,1.2-0.3,2.6-1,3.9c1,1,1.8,2.1,2.6,3.3c0.3-0.4,0.4-0.7,0.5-1
		c0.2-1,1.2-1.7,2.3-1.6c1,0.2,1.7,1.2,1.5,2.3c-0.2,1.2-1,2.5-2.1,3.6c0.3,0.6,0.6,1,0.9,1.6c0.3,0.7,0.7,1.4,1,2.1
		c0.5-0.3,0.8-0.6,1-0.9c0.6-0.9,1.7-1.2,2.7-0.7c0.9,0.6,1.2,1.8,0.6,2.7c-0.6,1-1.7,1.9-3,2.5c0.4,1.2,0.8,2.5,1.1,3.9
		c5.8-0.8,11.5-3.3,16-7.8s7-10.1,7.8-16c-1.3-0.3-2.6-0.7-3.9-1.1c-0.7,1.3-1.6,2.4-2.5,3c-0.9,0.6-2.1,0.3-2.7-0.6
		c-0.6-1-0.2-2.1,0.7-2.7c0.3-0.2,0.6-0.6,0.9-1c-0.7-0.3-1.4-0.7-2.1-1c-0.6-0.3-1-0.6-1.6-0.9c-1.1,1-2.4,1.9-3.6,2.1
		c-1,0.2-2.1-0.5-2.3-1.5c-0.1-1.1,0.6-2.1,1.6-2.3c0.3-0.1,0.6-0.2,1-0.5c-1.2-0.8-2.3-1.7-3.3-2.6c-1.3,0.7-2.8,1.2-3.9,1
		c-1,0-1.9-1-1.8-2c0.1-1.1,1-1.9,2.1-1.9c0.2,0.1,0.4,0,0.7-0.1c-1-1.2-1.9-2.3-2.8-3.5c-1.4,0.3-3,0.4-4.1,0
		c-1-0.3-1.5-1.4-1.2-2.4c0.3-1,1.4-1.6,2.4-1.2c0.1,0.1,0.3,0.1,0.5,0.1c-0.3-0.5-0.5-1-0.8-1.4c-0.3-0.6-0.7-1.3-1-1.9
		c-1.3,0-2.5-0.1-3.5-0.6c-1-0.5-1.4-1.7-0.9-2.5c0.5-1,1.7-1.4,2.6-0.9c0.1,0.1,0.1,0.1,0.2,0.1c-0.3-1.2-0.7-2.4-1-3.6
		c-5.8,0.7-11.5,3.3-16,7.8S5.7,23,5.1,28.8z M31.3,59.1c-0.2-0.9-0.5-1.9-0.8-2.8c-0.8,0.1-1.4,0.2-2.1,0.1c-1.1-0.1-1.9-1-1.8-2.1
		c0.1-1,1-1.8,2.1-1.7c0.1,0,0.1,0,0.3,0c-0.3-0.5-0.5-1-0.8-1.4c-0.1-0.3-0.3-0.6-0.5-0.9c-0.6,0.3-1.1,0.6-1.7,0.7
		c-1,0.3-2.1-0.3-2.3-1.4c-0.3-1,0.3-2.1,1.3-2.3c0.2-0.1,0.4-0.1,0.6-0.3c-0.7-0.9-1.4-1.8-2.1-2.6c-0.5,0.4-1,0.8-1.4,1.1
		c-1,0.5-2.1,0.2-2.6-0.8c-0.6-0.9-0.2-2.1,0.7-2.6c0.2-0.1,0.5-0.3,0.7-0.6c-0.9-0.8-1.8-1.7-2.8-2.4c-0.3,0.6-0.7,1-1.1,1.4
		c-0.8,0.8-2,0.8-2.8,0c-0.8-0.8-0.8-1.9,0-2.7c0.3-0.3,0.5-0.6,0.6-0.9c-0.7-0.4-1.4-0.8-2.1-1.2c-0.3-0.2-0.7-0.3-1-0.6
		c-0.3,0.8-0.6,1.5-1,2.1c-0.7,0.8-1.9,1-2.8,0.3c-0.8-0.6-1-1.9-0.3-2.7c0.2-0.3,0.4-0.7,0.6-1.2c-1.1-0.4-2.3-0.8-3.4-1
		c0.2,6.7,2.8,13.3,8,18.4C17.9,56.3,24.5,58.9,31.3,59.1z M59.1,31.3c-0.1-6.7-2.8-13.3-7.9-18.4c-5.1-5.2-11.8-7.8-18.4-8
		c0.3,1.2,0.6,2.3,1,3.4c0.5-0.2,0.9-0.4,1.2-0.6C35.8,7.1,37,7.2,37.6,8c0.6,0.9,0.5,2.1-0.3,2.8c-0.6,0.4-1.2,0.8-2.1,1
		c0.2,0.3,0.3,0.7,0.6,1c0.3,0.7,0.8,1.4,1.2,2.1c0.3-0.1,0.6-0.3,0.9-0.6c0.8-0.8,1.9-0.8,2.7,0c0.8,0.8,0.8,2,0,2.8
		c-0.3,0.4-0.8,0.8-1.4,1.1c0.8,1,1.6,1.9,2.4,2.8c0.2-0.2,0.4-0.5,0.6-0.7c0.5-0.9,1.7-1.2,2.6-0.7c1,0.5,1.2,1.7,0.8,2.6
		c-0.3,0.5-0.7,1-1.1,1.4c0.8,0.8,1.7,1.4,2.6,2.1c0.1-0.2,0.2-0.4,0.3-0.6c0.3-1,1.3-1.7,2.3-1.3c1,0.3,1.7,1.3,1.4,2.3
		c-0.1,0.6-0.4,1.1-0.7,1.7c0.3,0.1,0.6,0.3,0.9,0.5c0.5,0.3,1,0.5,1.4,0.8c0-0.1,0-0.2,0-0.3c-0.1-1,0.7-2,1.7-2.1
		c1.1-0.1,2,0.7,2.1,1.8c0.1,0.6,0,1.3-0.1,2.1C57.2,30.8,58.2,31.1,59.1,31.3z"/>
</g>
</svg>
