<?xml version="1.0" encoding="iso-8859-1"?>
<!-- Generator: Adobe Illustrator 19.0.0, SVG Export Plug-In . SVG Version: 6.00 Build 0)  -->
<svg xmlns="http://www.w3.org/2000/svg" xmlns:xlink="http://www.w3.org/1999/xlink" version="1.1" id="Capa_1" x="0px" y="0px" viewBox="0 0 512 512" style="enable-background:new 0 0 512 512;" xml:space="preserve" width="512px" height="512px">
<g>
	<g>
		<path d="M256,0C114.615,0,0,114.615,0,256s114.615,256,256,256s256-114.615,256-256S397.385,0,256,0z M74.88,124.64    c46.614,20.699,78.68,64.652,84.16,115.36H32.8C35.723,198.36,50.305,158.382,74.88,124.64z M74.88,387.36    C50.305,353.618,35.723,313.64,32.8,272h126.24C153.56,322.708,121.494,366.661,74.88,387.36z M240,479.2    c-54.491-3.835-105.702-27.449-144-66.4c54.228-27.136,90.549-80.406,96-140.8h48V479.2z M240,240h-48    c-5.504-60.335-41.817-113.533-96-140.64c38.298-38.951,89.509-62.565,144-66.4V240z M437.12,124.64    c24.575,33.742,39.157,73.72,42.08,115.36H352.96C358.441,189.292,390.506,145.339,437.12,124.64z M272,32.8    c54.491,3.835,105.702,27.449,144,66.4c-54.228,27.136-90.549,80.406-96,140.8h-48V32.8z M272,479.2L272,479.2V272h48    c5.504,60.335,41.817,113.533,96,140.64C377.727,451.65,326.512,475.322,272,479.2z M437.12,387.36    c-46.614-20.699-78.679-64.652-84.16-115.36H479.2C476.277,313.64,461.695,353.618,437.12,387.36z" fill="#00aeef"/>
	</g>
</g>
<g>
</g>
<g>
</g>
<g>
</g>
<g>
</g>
<g>
</g>
<g>
</g>
<g>
</g>
<g>
</g>
<g>
</g>
<g>
</g>
<g>
</g>
<g>
</g>
<g>
</g>
<g>
</g>
<g>
</g>
</svg>
