<?xml version="1.0" encoding="iso-8859-1"?>
<!-- Generator: Adobe Illustrator 19.0.0, SVG Export Plug-In . SVG Version: 6.00 Build 0)  -->
<svg xmlns="http://www.w3.org/2000/svg" xmlns:xlink="http://www.w3.org/1999/xlink" version="1.1" id="Layer_1" x="0px" y="0px" viewBox="0 0 512 512" style="enable-background:new 0 0 512 512;" xml:space="preserve" width="512px" height="512px">
<g>
	<g>
		<path d="M381.023,407.267l29.46-51.026c2.063-2.639,3.766-5.571,5.036-8.723l80.587-139.58L376.053,0H135.947L15.895,207.938    l115.083,199.329l-38.942,64.74h-44.24V512h416.408v-39.993h-44.239L381.023,407.267z M381.596,376.274    c-0.211-2.125-0.615-4.193-1.18-6.194c0.558,0.026,1.118,0.043,1.683,0.043c1.056,0,2.098-0.055,3.132-0.145L381.596,376.274z     M401.885,341.131l-3.806,6.592c-3.859,4.52-9.586,7.4-15.981,7.4c-11.591,0-21.021-9.43-21.021-21.021s9.43-21.021,21.021-21.021    s21.021,9.43,21.021,21.021C403.12,336.57,402.67,338.929,401.885,341.131z M295.053,369.285c2.483,0.543,5.059,0.838,7.703,0.838    c2.973,0,5.86-0.369,8.626-1.051c-1.071,3.406-1.65,7.027-1.65,10.782c0,7.842,2.526,15.1,6.797,21.021H289.84    c4.271-5.921,6.797-13.179,6.797-21.021C296.638,376.177,296.082,372.629,295.053,369.285z M302.756,355.123    c-11.591,0-21.021-9.43-21.021-21.021s9.43-21.021,21.021-21.021c1.506,0,2.973,0.166,4.39,0.469l15.815,26.291    C320.455,348.648,312.356,355.123,302.756,355.123z M266.736,334.102c0,3.676,0.557,7.225,1.585,10.568    c-2.484-0.543-5.059-0.838-7.703-0.838c-4.968,0-9.704,1.011-14.014,2.838c-2.295-17.666-17.428-31.359-35.709-31.359    c-2.603,0-5.14,0.284-7.588,0.811l26.49-44.038c7.93,3.832,16.82,5.981,26.203,5.981c8.837,0,17.229-1.922,24.804-5.345    c-0.106,1.121-0.165,2.255-0.165,3.404c0,9.342,3.576,17.864,9.43,24.271C276.45,305.539,266.736,318.705,266.736,334.102z     M281.638,379.854c0,11.591-9.43,21.021-21.021,21.021c-11.591,0-21.021-9.431-21.021-21.021c0-11.591,9.43-21.021,21.021-21.021    C272.208,358.833,281.638,368.263,281.638,379.854z M210.893,372.353c-7.054,0.001-13.293-3.504-17.108-8.851    c-0.591-1.155-1.241-2.275-1.949-3.354c-1.248-2.685-1.964-5.665-1.964-8.816c0-3.495,0.87-6.786,2.385-9.689    c0.933-1.218,1.788-2.497,2.562-3.83c3.859-4.581,9.629-7.502,16.074-7.502c11.591,0,21.021,9.43,21.021,21.021    S222.484,372.353,210.893,372.353z M231.393,400.874h-40.464c3.372-4.674,5.65-10.184,6.46-16.157    c4.174,1.694,8.73,2.636,13.504,2.636c4.968,0,9.704-1.011,14.014-2.838C225.692,390.565,227.983,396.147,231.393,400.874z     M210.551,217.616c0-25.06,20.388-45.448,45.449-45.448c25.061,0,45.449,20.388,45.449,45.448    c0,25.061-20.388,45.449-45.449,45.449C230.939,263.065,210.551,242.677,210.551,217.616z M316.659,297.145    c-0.653,0-1.297-0.039-1.935-0.098l-17.458-29.023c3.178-7.581,10.673-12.921,19.394-12.921c11.59,0,21.02,9.43,21.02,21.021    S328.25,297.145,316.659,297.145z M333.877,227.479c0-11.591,9.43-21.021,21.021-21.021s21.021,9.43,21.021,21.021    s-9.43,21.021-21.021,21.021S333.877,239.07,333.877,227.479z M352.589,359.996c8.241,2.846,14.185,10.662,14.185,19.858    c0,1.112-0.112,2.196-0.279,3.261L352.589,359.996z M357.508,397.274c-3.357,2.273-7.403,3.602-11.754,3.602    c-11.592-0.001-21.022-9.432-21.022-21.022c0-8.021,4.519-15.002,11.143-18.544L357.508,397.274z M126.971,370.33L33.215,207.938    L144.606,15h222.785l111.393,192.938l-64.051,110.94c-5.748-12.272-18.212-20.796-32.635-20.796    c-19.862,0-36.021,16.159-36.021,36.021c0,3.387,0.48,6.663,1.358,9.773c-0.558-0.026-1.118-0.043-1.683-0.043    c-0.948,0-1.885,0.048-2.815,0.12l-4.276-7.109c0.069-0.906,0.115-1.819,0.115-2.742c0-9.342-3.576-17.864-9.43-24.271    c13.619-5.144,23.333-18.31,23.333-33.707c0-4.557-0.859-8.915-2.41-12.931c1.517,0.195,3.059,0.307,4.628,0.307    c3.438,0,6.761-0.494,9.913-1.398c0.062,19.81,16.194,35.908,36.018,35.908c19.862,0,36.021-16.159,36.021-36.021    s-16.159-36.021-36.021-36.021c-3.438,0-6.761,0.494-9.913,1.398c-0.062-19.81-16.195-35.908-36.018-35.908    c-19.862,0-36.021,16.159-36.021,36.021c0,4.557,0.859,8.914,2.41,12.931c-1.517-0.195-3.059-0.307-4.628-0.307    c-1.59,0-3.153,0.115-4.69,0.315c2.879-7.041,4.479-14.736,4.479-22.801c0-33.331-27.117-60.448-60.449-60.448    c-33.332,0-60.449,27.117-60.449,60.448c0,18.573,8.426,35.209,21.649,46.306l-22.56,37.506    c-4.394-7.391-11.356-13.08-19.647-15.836c12.263-5.752,20.78-18.211,20.78-32.627c0-19.862-16.159-36.021-36.021-36.021    s-36.021,16.159-36.021,36.021c0,15.903,10.363,29.422,24.688,34.184c-12.263,5.752-20.78,18.211-20.78,32.628    c0,12.122,6.025,22.856,15.231,29.388C135.187,353.898,129.415,361.431,126.971,370.33z M379.808,261.988    c0-11.591,9.43-21.021,21.021-21.021s21.021,9.43,21.021,21.021s-9.43,21.021-21.021,21.021S379.808,273.579,379.808,261.988z     M174.83,363.46c1.515,1.216,2.852,2.639,3.982,4.223c0.591,1.155,1.241,2.275,1.949,3.354c1.247,2.685,1.964,5.665,1.964,8.816    c0,11.591-9.43,21.021-21.021,21.021c-2.961,0.001-5.778-0.622-8.336-1.733L174.83,363.46z M142.432,388.222    c-1.119-2.567-1.748-5.394-1.748-8.368c0-11.036,8.554-20.093,19.376-20.938L142.432,388.222z M172.002,339.062    c-2.56,1.112-5.379,1.736-8.343,1.736c-11.591,0-21.021-9.43-21.021-21.021s9.43-21.021,21.021-21.021    c11.033,0,20.089,8.55,20.937,19.369L172.002,339.062z M138.73,252.966c0-11.591,9.43-21.021,21.021-21.021    s21.021,9.43,21.021,21.021s-9.43,21.021-21.021,21.021C148.16,273.987,138.73,264.557,138.73,252.966z M143.304,415.875h225.393    l33.764,56.132H109.538L143.304,415.875z M449.203,497H62.796v-9.993h386.408V497z" fill="#00aeef"/>
	</g>
</g>
<g>
	<g>
		<path d="M255.999,177.979c-21.856,0-39.638,17.781-39.638,39.638s17.782,39.638,39.638,39.638s39.638-17.782,39.638-39.638    S277.856,177.979,255.999,177.979z M255.999,242.255c-13.585,0-24.638-11.053-24.638-24.638s11.053-24.638,24.638-24.638    c13.585,0,24.638,11.052,24.638,24.638S269.585,242.255,255.999,242.255z" fill="#00aeef"/>
	</g>
</g>
<g>
	<g>
		<path d="M174.53,95.863c-19.862,0-36.021,16.159-36.021,36.021s16.159,36.021,36.021,36.021s36.021-16.159,36.021-36.021    S194.392,95.863,174.53,95.863z M174.53,152.905c-11.591,0-21.021-9.43-21.021-21.021s9.43-21.021,21.021-21.021    s21.021,9.43,21.021,21.021S186.121,152.905,174.53,152.905z" fill="#00aeef"/>
	</g>
</g>
<g>
	<g>
		<path d="M326.377,38.821c-19.862,0-36.021,16.159-36.021,36.021s16.159,36.021,36.021,36.021s36.021-16.159,36.021-36.021    S346.239,38.821,326.377,38.821z M326.377,95.862c-11.591,0-21.021-9.43-21.021-21.021s9.43-21.021,21.021-21.021    s21.021,9.43,21.021,21.021S337.968,95.862,326.377,95.862z" fill="#00aeef"/>
	</g>
</g>
<g>
</g>
<g>
</g>
<g>
</g>
<g>
</g>
<g>
</g>
<g>
</g>
<g>
</g>
<g>
</g>
<g>
</g>
<g>
</g>
<g>
</g>
<g>
</g>
<g>
</g>
<g>
</g>
<g>
</g>
</svg>
