<?xml version="1.0" encoding="iso-8859-1"?>
<!-- Generator: Adobe Illustrator 19.0.0, SVG Export Plug-In . SVG Version: 6.00 Build 0)  -->
<svg xmlns="http://www.w3.org/2000/svg" xmlns:xlink="http://www.w3.org/1999/xlink" version="1.1" id="Layer_1" x="0px" y="0px" viewBox="0 0 512 512" style="enable-background:new 0 0 512 512;" xml:space="preserve" width="512px" height="512px">
<g>
	<g>
		<path d="M298.667,170.667c-17.429,0-32.917,8.405-42.667,21.355c-9.749-12.949-25.237-21.355-42.667-21.355    c-25.771,0-53.333,16.811-53.333,64c0,55.936,85.824,122.944,89.472,125.781c1.92,1.472,4.224,2.219,6.528,2.219    c2.304,0,4.608-0.747,6.528-2.219C266.176,357.611,352,290.603,352,234.667C352,187.477,324.437,170.667,298.667,170.667z     M256,338.304c-25.664-21.269-74.667-69.056-74.667-103.637c0-27.52,11.371-42.667,32-42.667c17.643,0,32,14.357,32,32    c0,5.888,4.779,10.667,10.667,10.667c5.888,0,10.667-4.779,10.667-10.667c0-17.643,14.357-32,32-32c20.629,0,32,15.147,32,42.667    C330.667,269.184,281.643,317.013,256,338.304z" fill="#00aeef"/>
	</g>
</g>
<g>
	<g>
		<path d="M384,0H128C98.603,0,74.667,23.936,74.667,53.333v405.333C74.667,488.064,98.603,512,128,512h256    c29.397,0,53.333-23.936,53.333-53.333V53.333C437.333,23.936,413.397,0,384,0z M416,458.667c0,17.643-14.357,32-32,32H128    c-17.643,0-32-14.357-32-32V53.333c0-17.643,14.357-32,32-32h256c17.643,0,32,14.357,32,32V458.667z" fill="#00aeef"/>
	</g>
</g>
<g>
	<g>
		<path d="M202.005,134.912l-32-85.333c-3.136-8.32-16.875-8.32-19.989,0l-32,85.333c-2.069,5.525,0.725,11.669,6.229,13.739    c5.525,2.048,11.669-0.704,13.739-6.229L160,83.712l22.016,58.709c1.6,4.267,5.675,6.912,9.984,6.912    c1.259,0,2.517-0.213,3.776-0.683C201.28,146.581,204.075,140.437,202.005,134.912z" fill="#00aeef"/>
	</g>
</g>
<g>
	<g>
		<path d="M181.333,106.667h-42.667c-5.888,0-10.667,4.779-10.667,10.667S132.779,128,138.667,128h42.667    c5.888,0,10.667-4.779,10.667-10.667S187.221,106.667,181.333,106.667z" fill="#00aeef"/>
	</g>
</g>
<g>
	<g>
		<path d="M387.755,363.349c-5.525-2.069-11.669,0.704-13.739,6.229L352,428.288l-22.016-58.709    c-2.069-5.504-8.213-8.277-13.739-6.229c-5.504,2.069-8.299,8.213-6.229,13.739l32,85.333c1.557,4.16,5.547,6.912,9.984,6.912    c4.437,0,8.427-2.752,9.984-6.912l32-85.333C396.053,371.563,393.259,365.419,387.755,363.349z" fill="#00aeef"/>
	</g>
</g>
<g>
	<g>
		<path d="M373.333,384h-42.667c-5.888,0-10.667,4.779-10.667,10.667s4.779,10.667,10.667,10.667h42.667    c5.888,0,10.667-4.779,10.667-10.667S379.221,384,373.333,384z" fill="#00aeef"/>
	</g>
</g>
<g>
</g>
<g>
</g>
<g>
</g>
<g>
</g>
<g>
</g>
<g>
</g>
<g>
</g>
<g>
</g>
<g>
</g>
<g>
</g>
<g>
</g>
<g>
</g>
<g>
</g>
<g>
</g>
<g>
</g>
</svg>
