<?xml version="1.0" encoding="iso-8859-1"?>
<!-- Generator: Adobe Illustrator 19.0.0, SVG Export Plug-In . SVG Version: 6.00 Build 0)  -->
<svg xmlns="http://www.w3.org/2000/svg" xmlns:xlink="http://www.w3.org/1999/xlink" version="1.1" id="Layer_1" x="0px" y="0px" viewBox="0 0 511.98 511.98" style="enable-background:new 0 0 511.98 511.98;" xml:space="preserve" width="512px" height="512px">
<g>
	<g>
		<path d="M487.624,189.996c-13.249-8.172-31.921-15.437-55.483-21.585c-26.186-6.836-57.123-11.96-90.824-15.171V85.327h10.671    c0,5.891,4.766,10.664,10.656,10.664h21.327c5.891,0,10.672-4.773,10.672-10.664c0-5.89-4.781-10.671-10.672-10.671h-10.656    c0-5.891-4.781-10.664-10.671-10.664h-21.327V53.328c0-5.89-4.781-10.671-10.672-10.671s-10.656,4.781-10.656,10.671v98.161    c-20.655-1.43-42.107-2.164-63.998-2.164c-21.89,0-43.358,0.734-63.998,2.164V85.327h10.656c0,5.891,4.781,10.664,10.671,10.664    h21.328c5.89,0,10.671-4.773,10.671-10.664c0-5.89-4.781-10.671-10.671-10.671h-10.656c-0.016-5.891-4.781-10.664-10.671-10.664    h-21.328V53.328c0-5.89-4.781-10.671-10.671-10.671s-10.671,4.781-10.671,10.671v99.911c-33.702,3.211-64.639,8.335-90.826,15.171    c-23.562,6.148-42.233,13.414-55.482,21.585C8.187,199.963,0,211.392,0,223.986v170.652c0,12.594,8.188,24.029,24.343,33.998    c13.25,8.188,31.921,15.438,55.482,21.594c47.185,12.313,109.746,19.094,176.165,19.094c10.609,0,21.109-0.188,31.483-0.531    c0.172,0.016,0.328,0.031,0.5,0.031c0.438,0,0.875-0.031,1.312-0.094c53.827-1.875,103.653-8.281,142.854-18.5    c23.562-6.156,42.234-13.406,55.483-21.594c16.155-9.969,24.358-21.404,24.358-33.998V223.987    C511.982,211.393,503.779,199.964,487.624,189.996z M336.878,174.238c33.467,3.085,64.107,8.093,89.888,14.82    c6.078,1.586,11.624,3.195,16.671,4.82l-92.31,51.717c-5.655-1.891-11.78-3.32-17.624-4.484    c-8.562-1.711-18.266-3.109-28.75-4.164L336.878,174.238z M255.99,170.652c19.75,0.001,39.14,0.618,57.826,1.805l-32.17,62.803    c-8.312-0.398-16.906-0.609-25.656-0.609c-8.75,0-17.358,0.211-25.671,0.609l-32.171-62.803    C216.835,171.269,236.225,170.652,255.99,170.652z M85.198,189.058c25.781-6.727,56.42-11.734,89.888-14.82l32.124,62.709    c-10.484,1.055-20.187,2.453-28.749,4.164c-5.843,1.164-11.968,2.594-17.625,4.484l-92.31-51.717    C73.574,192.253,79.121,190.644,85.198,189.058z M74.652,426.637c-41.78-12.374-53.327-25.702-53.327-31.999v-53.201    c4.156,3.109,9.125,6.234,15.062,9.326c10.719,5.594,23.5,10.5,38.265,14.688V426.637z M74.652,343.14    c-9.188-2.812-16.656-5.719-22.687-8.484c-27.14-12.484-30.358-24.453-30.64-25.828v-52.725c4.156,3.102,9.125,6.243,15.062,9.344    c10.719,5.594,23.5,10.477,38.265,14.664V343.14z M51.965,249.323c-26.64-12.25-30.233-24.015-30.624-25.75    c0.328-4.312,5.781-11.578,21.64-19.546l97.778,54.772c-1.344,2.32-2.109,4.922-2.109,7.852c0,1.508,0.203,2.922,0.578,4.258    C95.417,265.299,68.402,256.885,51.965,249.323z M181.321,444.95c-31.312-2.641-60.279-6.938-85.326-12.719v-61.514    c24.218,5.172,52.702,8.859,85.326,11.016V444.95z M181.321,360.294c-36.171-2.469-63.982-6.688-85.326-11.529v-63.373    c24.218,5.186,52.702,8.842,85.326,10.998V360.294z M213.319,447.011c-3.578-0.156-7.14-0.344-10.671-0.562v-63.561    c3.516,0.156,7.062,0.281,10.671,0.406V447.011z M277.302,447.73c-7.047,0.156-14.156,0.25-21.312,0.25    c-7.171,0-14.281-0.094-21.343-0.25v-63.904c6.968,0.094,14.078,0.156,21.343,0.156c7.25,0,14.344-0.062,21.312-0.156V447.73z     M309.316,446.449c-3.531,0.219-7.093,0.406-10.687,0.562v-63.717c3.61-0.124,7.172-0.249,10.687-0.406V446.449z M309.316,361.482    c-18.53,0.844-36.623,1.156-53.326,1.156c-19.358,0-37.092-0.406-53.342-1.125v-63.967c16.796,0.734,34.577,1.094,53.342,1.094    c18.75,0,36.53-0.359,53.326-1.094V361.482z M255.99,277.33c-24.39,0-48.045-1.719-66.591-4.812    c-12-2.008-19.437-4.148-23.953-5.867c4.516-1.711,11.953-3.852,23.953-5.852c18.546-3.102,42.201-4.813,66.591-4.813    c24.375,0,48.029,1.711,66.592,4.813c11.984,2,19.422,4.141,23.938,5.852c-4.516,1.719-11.953,3.859-23.938,5.867    C304.02,275.612,280.365,277.33,255.99,277.33z M415.985,432.23c-25.062,5.781-54.029,10.078-85.341,12.719v-63.217    c32.624-2.156,61.107-5.844,85.341-11.016V432.23z M415.985,348.828c-26.077,5.904-55.779,9.435-85.341,11.451V296.39    c32.624-2.156,61.107-5.812,85.341-10.998V348.828z M424.547,261.44c-0.359,0.078-0.703,0.164-1.062,0.273    c-15.671,3.938-32.89,6.945-50.749,9.211c0.375-1.344,0.578-2.758,0.578-4.273c0-2.93-0.766-5.531-2.109-7.852l97.779-54.772    c16.374,8.226,21.655,15.702,21.655,19.96c0,0.094-2.641,10.914-24.937,22.539C454.14,252.565,440.124,257.471,424.547,261.44z     M437.311,280.111c14.766-4.188,27.547-9.07,38.266-14.664c5.937-3.102,10.905-6.242,15.062-9.344v53.225    c0,0.094-2.641,10.906-24.937,22.531c-8.312,4.344-17.891,8.094-28.391,11.344V280.111z M490.64,394.637    c-0.001,6.298-11.547,19.626-53.328,31.999V365.45c14.766-4.188,27.547-9.094,38.266-14.688    c5.937-3.092,10.905-6.217,15.062-9.326V394.637z" fill="#00aeef"/>
	</g>
</g>
<g>
</g>
<g>
</g>
<g>
</g>
<g>
</g>
<g>
</g>
<g>
</g>
<g>
</g>
<g>
</g>
<g>
</g>
<g>
</g>
<g>
</g>
<g>
</g>
<g>
</g>
<g>
</g>
<g>
</g>
</svg>
