<?xml version="1.0" encoding="utf-8"?>
<!-- Generator: Adobe Illustrator 22.0.1, SVG Export Plug-In . SVG Version: 6.00 Build 0)  -->
<svg version="1.1" id="Layer_1" xmlns="http://www.w3.org/2000/svg" xmlns:xlink="http://www.w3.org/1999/xlink" x="0px" y="0px"
	 viewBox="0 0 64 64" style="enable-background:new 0 0 64 64;" xml:space="preserve">
<style type="text/css">
	.st0{fill:none;}
	.st1{fill:#00AEEF;}
</style>
<g>
	<path class="st0" d="M30.6,9c-2.1,0.3-4.3,0.6-6.3,1.4c-3.5,1.2-5.7,2.7-5.7,2.7c-7.6,9.6-0.8,12.3,6.5,19.5l12.7-2.5l5.3-14
		l-7.4-7.1C34,8.9,32.3,8.9,30.6,9z"/>
	<path class="st0" d="M22.5,45.3l1-11.4c-6.3-6.3-9.1-13.5-16.8-7c-0.5,1.4-0.9,2.8-1.2,4.4c-0.4,1.9-0.4,4.1-0.3,6.2
		c0.3,1.8,0.5,3.4,0.9,4.5C12.3,50.7,13.2,48.2,22.5,45.3z"/>
	<path class="st0" d="M23.4,47c-14.1,4.5-7.1,2.5-10,7.4c1.8,1.4,3.8,2.6,5.7,3.6c2.3,1,4.8,1.8,7.4,2.3c11.1-0.4,10.7,0.3,8.7-8.4
		L23.4,47z"/>
	<path class="st0" d="M23.7,8.6c2.2-0.8,4.5-1.3,6.7-1.4c1.7-0.3,3.5-0.3,5.2,0c1.9-1.7,3.2-2.5,4.3-2.8c-2.6-0.6-5.3-1-7.9-1
		c-3.9,0-7.8,0.8-11.4,2.2c-1.7,0.8-3.4,1.6-4.9,2.6c-0.3,0.3-0.5,0.4-0.8,0.7c-0.1,0.1-0.5,0.4-0.6,0.4c1,0.3,3.1,0.9,4.8,1.6
		C20,10.1,21.6,9.3,23.7,8.6z"/>
	<path class="st0" d="M5,20.2c-1.7,3.6-2.6,7.6-2.6,11.9c0,1.3,0.1,2.7,0.3,4c0.1,0.4,0.4,0.8,0.7,1.3c-0.1-2.2-0.1-4.3,0.3-6.3
		c0.3-1.9,0.8-3.8,1.6-5.6C5,24,4.9,22.1,5,20.2z"/>
	<path class="st0" d="M49.8,9.2c0,0-0.1-0.1-0.1-0.1C49.7,9,49.7,9.1,49.8,9.2z"/>
	<path class="st0" d="M50.2,9.4c-0.1,0-0.3-0.1-0.4-0.3c0,0,0,0,0,0c2.4,2.5,3.3,5.1,3.5,6.6c1.8,1.4,3.5,3.1,4.8,4.8
		c0.9,1.2,1.6,2.3,2.2,3.5c-1-3.8-3-7.2-5.4-10.2C53.4,12.3,51.9,10.7,50.2,9.4z"/>
	<path class="st0" d="M52.4,17.4L44.9,17l-5.3,14l5.8,10c12.3-1,12.9,1.2,14.6-12.8c-0.8-2.3-1.9-4.5-3.5-6.5
		C55.4,20.2,53.9,18.7,52.4,17.4z"/>
	<path class="st0" d="M45.3,42.9L37,51.4c1.8,7,4.1,9.4,12.9,3.5c2.5-1.7,4.5-4,6.3-6.5c0.1-0.3,0.3-0.5,0.5-0.8
		C56,39.4,54.8,42.2,45.3,42.9z"/>
	<path class="st1" d="M60.5,20.3c-1.5-3.5-3.9-6.7-6.7-9.6C51.1,8,47.7,5.8,44,4.4c-3.8-1.6-7.8-2.5-12-2.5c-4.1,0-8.2,0.9-12,2.5
		c-3.6,1.4-7,3.6-9.8,6.5c-2.8,2.7-5,6-6.6,9.4C1.8,24,1,27.9,1,32.1c0,4,0.8,8,2.5,11.7c1.6,3.6,3.7,6.9,6.6,9.6
		c2.9,2.7,6.2,4.9,9.8,6.5c3.9,1.6,7.9,2.3,12,2.3c4.3,0,8.3-0.8,12-2.3c3.8-1.6,7.1-3.8,10-6.5c2.8-2.7,5-6,6.6-9.6
		c1.6-3.6,2.5-7.6,2.5-11.7C63,27.9,62.1,24,60.5,20.3z M14.9,8.8c0.3-0.3,0.5-0.4,0.8-0.7c1.6-1,3.2-1.8,4.9-2.6
		c3.6-1.4,7.5-2.2,11.4-2.2c2.6,0,5.3,0.4,7.9,1c-1,0.4-2.3,1.2-4.3,2.8c-1.7-0.3-3.5-0.3-5.2,0c-2.2,0.1-4.5,0.6-6.7,1.4
		c-2.1,0.6-3.6,1.4-4.7,2.1c-1.7-0.6-3.8-1.3-4.8-1.6C14.3,9.2,14.7,8.9,14.9,8.8z M43.1,16.3l-5.3,14l-12.7,2.5
		c-7.2-7.2-14.1-10-6.5-19.5c0,0,2.2-1.6,5.7-2.7c2.1-0.8,4.3-1.2,6.3-1.4c1.7-0.1,3.4-0.1,5,0.1L43.1,16.3z M3.6,31
		c-0.4,2.1-0.4,4.1-0.3,6.3c-0.3-0.5-0.5-0.9-0.7-1.3c-0.1-1.3-0.3-2.7-0.3-4c0-4.3,0.9-8.3,2.6-11.9c-0.1,1.9,0,3.9,0.1,5.3
		C4.4,27.3,3.8,29.1,3.6,31z M6.2,42c-0.4-1.2-0.6-2.7-0.9-4.5c-0.1-2.1-0.1-4.3,0.3-6.2c0.3-1.6,0.6-3,1.2-4.4
		c7.8-6.5,10.5,0.6,16.8,7l-1,11.4C13.2,48.2,12.3,50.7,6.2,42z M26.5,60.3c-2.6-0.5-5.1-1.3-7.4-2.3c-1.9-1-3.9-2.2-5.7-3.6
		c2.8-4.9-4.1-2.8,10-7.4l11.8,4.9C37.2,60.5,37.6,59.9,26.5,60.3z M56.3,48.4c-1.8,2.5-3.9,4.8-6.3,6.5c-8.8,6-11.1,3.5-12.9-3.5
		l8.3-8.4c9.6-0.8,10.7-3.5,11.5,4.7C56.5,47.9,56.4,48.1,56.3,48.4z M45.4,41l-5.8-10l5.3-14l7.5,0.4c1.6,1.3,3,2.7,4.1,4.3
		c1.6,1.9,2.7,4.1,3.5,6.5C58.3,42.2,57.7,40,45.4,41z M58.1,20.5c-1.3-1.7-3-3.4-4.8-4.8c-0.3-1.5-1.1-4.1-3.5-6.6
		c-0.1,0-0.1-0.1-0.1-0.1c0,0,0.1,0.1,0.1,0.1c0,0,0,0,0,0c0.1,0.1,0.3,0.3,0.4,0.3c1.7,1.3,3.2,2.8,4.7,4.4c2.5,3,4.4,6.5,5.4,10.2
		C59.6,22.9,59,21.7,58.1,20.5z"/>
</g>
</svg>
