<?xml version="1.0" encoding="utf-8"?>
<!-- Generator: Adobe Illustrator 22.0.1, SVG Export Plug-In . SVG Version: 6.00 Build 0)  -->
<svg version="1.1" id="Layer_1" xmlns="http://www.w3.org/2000/svg" xmlns:xlink="http://www.w3.org/1999/xlink" x="0px" y="0px"
	 viewBox="0 0 64 64" style="enable-background:new 0 0 64 64;" xml:space="preserve">
<style type="text/css">
	.st0{fill:#00AEEF;}
</style>
<g>
	<path class="st0" d="M32.6,30.8c-1.3-1.1-1.3-2.8-1.1-3.8c0.5-0.1,3.5-0.3,4.4-0.6c0.8-0.2,4.7-1.3,5.9-1.6c0.1,2,0.4,3.8,3.1,3.7
		c3-0.1,3.3,2.2,3.3,2.2c0-0.6,1.6-1.1,1.6-1.1s0-0.1,0.3,0c1.1,0.2,2,0.4,2.8,0.6l-1.8-3.7c-0.7,0.1-1.6-0.1-2.7-1.4
		c0,0,2.3-2.4,4-0.6l0.1,0.1l-0.1-0.1c-0.2-0.2-0.9-0.8-2.1-0.3C49,25,49.3,25,49.3,25s0.9,1.3,3.3,0.6c0,0-0.3,0.3-0.6,0.6l2,4.2
		c0,0,0,0,0.1,0v0.1l0.5,0.9c0.1,0.1,0.1,0.1,0.2,0.1l3.1,0.9c0,0,0.6,0.3,1.5,0.3s1.9-0.3,2.7-1.3c0.9-1.1,0.9-2,0.9-2.7
		c-0.1-0.8-0.7-1.5-1.5-1.9l-0.9-0.4c-1.3,0.6-1.7,1.1-2,1.3c-0.3,0.2-1.1,2.7-1.3,3.5h0.1c0.1,0.1,0.1,0.1,0.2,0.1
		c0.1,0,0.2,0,0.3,0c0.3,0.1,0.4,0.1,0.5,0.1c0.2,0,1.3-0.3,1.5-0.6c0.1-0.3,0-0.6-0.3-0.6c-0.3-0.1-0.7-0.2-1.1-0.3
		c0.1-0.3,0.3-0.7,0.4-1c0.8,0.3,1.8,0.5,2.5,0.4c0.6-0.1,0.8-0.5,0.9-0.9c0.1,0.2,0.2,0.4,0.3,0.6c0.1,0.6-0.1,1.4-0.8,2.1
		c-1.3,1.6-3.4,0.8-3.5,0.8l-3-0.9l-0.2-0.3c0.7,0.2,1.2,0.3,1.7,0.4c0.1-0.3,0.3-0.9,0.5-1.6c-0.3-0.1-0.6-0.2-0.7-0.3
		c-0.8-0.4,0.6-0.6,0.6-0.6s0,0,0.4,0c0.1-0.4,0.3-0.7,0.4-0.9c0.4-0.7,1.4-1.2,1.8-1.5l-0.6-0.4L58.4,25c-0.8-1.1-2.8-2.1-3.7-2.2
		c-0.9-0.1-3.7,0.4-3.7,0.4s-3.2-0.6-5.7-0.1s-3.4,1-3.4,1l0,0c-1.1,0.3-5.2,1.5-6.1,1.7c-0.8,0.2-3.3,0.4-4.1,0.6v-0.1
		c-1.9,0.2-7.5,1.5-7.5,1.5c-4-1.3-8.9-0.6-11.4,2S7.8,33,6.5,32.5c-0.8-0.3-1.5-0.2-1.8-0.1c-0.2,0.1-0.3,0.3-0.1,0.4
		c2.7,1.9,5.2,0.8,6.9-0.4c2.3-1.7,4.7-3,5.9-3.2c2.1-0.3,3.4,0,3.4,0l-0.6,0.3c-6.7,2-8.2,6.4-9.1,6.9c-0.3,0.2-1.3,0.1-2.5-0.2
		c-0.1-0.3-0.3-0.5-0.4-0.6c-0.3-0.3-2.7-0.2-2.7-0.2l0,0c-0.9-0.2-1.4-0.4-1.4-0.4s-0.6-2.1-1.7-1.6S2.3,37,3.2,37.1
		c0.9,0.1,6.4,2.8,8.8,2.8s5.8-2.7,6.7-3.1c0.9-0.4,4.3-2.3,4.3-2.3c1-0.2,3.3,0.9,5.9,2.1C29.8,33.5,31.6,31.7,32.6,30.8z
		 M56.8,25.1l0.6,1c0,0-1.4,0.3-1.8-0.3L56.8,25.1z"/>
	<path class="st0" d="M59.9,37.5c-0.6,0-4.8-0.6-7.3-2c-2.4-1.3-2.4-1.3-2.4-1.3s0,0-0.6-1.5c-0.6-1.5-1.3-2-2.4-2s-6.1,0.9-6.1,0.9
		c-3.6,0.7-5.9,0.6-7.3-0.1c-1.6,1.3-2.8,4-3.5,5.8c2.3,1,4.7,1.8,6.7,1.9C41.7,39.4,46,37,46,37c-0.3-1.8-2-2.5-2-2.5
		c2.7,0,3.3,3.4,4.4,3.1c1.1-0.3,8.6,1.5,10.2,2c1.6,0.4,3.3-0.2,3.3-0.2s0,0,0.6-1c0.6-1,0.2-1.5,0.2-1.5
		C61.3,36.1,60.6,37.5,59.9,37.5z"/>
	<path class="st0" d="M49.6,30.4l-0.4,0.3c0,0,0.4,0.4,0.6,0.6c0.2,0.3,1,2.4,1,2.4l0.6,0.3c0,0-0.4-3.2-0.6-3.4
		C50.6,30.3,50.1,30.2,49.6,30.4z"/>
	<path class="st0" d="M60,35.5c-0.4,0.5-2.7,0.8-2.7,0.8s2.1,0.8,2.8,0.2c0.7-0.5,1.7-0.8,1.7-0.8s0.3-0.3-0.2-0.6
		C61.3,34.8,60.4,35,60,35.5z"/>
	<path class="st0" d="M3.2,39.6c0,0-1.6-0.1-2.1,0.6c-0.5,0.7,1.7,1,2.3,1.1s3.5-1.6,3.5-1.6l-1.8-1L3.2,39.6z"/>
</g>
</svg>
