<?xml version="1.0" encoding="utf-8"?>
<!-- Generator: Adobe Illustrator 22.0.1, SVG Export Plug-In . SVG Version: 6.00 Build 0)  -->
<svg version="1.1" id="Layer_1" xmlns="http://www.w3.org/2000/svg" xmlns:xlink="http://www.w3.org/1999/xlink" x="0px" y="0px"
	 viewBox="0 0 64 64" style="enable-background:new 0 0 64 64;" xml:space="preserve">
<style type="text/css">
	.st0{fill:#00AEEF;}
</style>
<g>
	<path class="st0" d="M32,11.6c-15,0-31,4-31,11.4V41c0,7.4,16,11.4,31,11.4s31-4,31-11.4V23C63,15.6,47,11.6,32,11.6z M32,14.9
		c17.2,0,27.8,4.8,27.8,8.2S49.2,31.2,32,31.2S4.2,26.4,4.2,23S14.8,14.9,32,14.9z M32,49.1c-17.2,0-27.8-4.8-27.8-8.2V28.3
		c5.4,4,16.8,6.1,27.8,6.1s22.4-2.1,27.8-6.1V41C59.8,44.4,49.2,49.1,32,49.1z"/>
	<path class="st0" d="M43.8,26.7c0.1,0.8,0.8,1.4,1.6,1.4c0.1,0,0.2,0,0.2,0c6.2-0.9,9.4-2.6,9.4-5.1c0-2.4-3-4.1-9.1-5
		c-0.9-0.1-1.7,0.5-1.8,1.3c-0.1,0.9,0.5,1.7,1.3,1.8c3.7,0.6,5.5,1.4,6.1,1.8c-0.7,0.5-2.5,1.3-6.4,1.9
		C44.3,25,43.7,25.8,43.8,26.7z"/>
	<path class="st0" d="M8.3,32.5c-0.9,0-1.6,0.7-1.6,1.6v6c0,0.9,0.7,1.6,1.6,1.6s1.6-0.7,1.6-1.6v-6C9.9,33.2,9.2,32.5,8.3,32.5z"/>
	<path class="st0" d="M12.9,35.5c-0.9,0-1.6,0.7-1.6,1.6v4.8c0,0.9,0.7,1.6,1.6,1.6s1.6-0.7,1.6-1.6v-4.8
		C14.5,36.2,13.8,35.5,12.9,35.5z"/>
</g>
</svg>
