<?xml version="1.0" encoding="utf-8"?>
<!-- Generator: Adobe Illustrator 22.0.1, SVG Export Plug-In . SVG Version: 6.00 Build 0)  -->
<svg version="1.1" id="Layer_1" xmlns="http://www.w3.org/2000/svg" xmlns:xlink="http://www.w3.org/1999/xlink" x="0px" y="0px"
	 viewBox="0 0 64 64" style="enable-background:new 0 0 64 64;" xml:space="preserve">
<style type="text/css">
	.st0{fill:#00AEEF;}
</style>
<g>
	<path class="st0" d="M24.1,16.8c0.4,0.3,0.7,0.6,1.1,0.9c0.9,0.7,1.2,0.9,2.2,1.2c0.2,0,0.6,0.1,1.1,0c0.2,0,1.6-0.2,0.5-0.5
		c-0.2-0.1-0.7-0.5-1-0.6c-0.5-0.2-1.3-0.6-1.8-0.9c-1.8-1-2.7-1.6-0.6-3.8c3.6-3.8,8.5-2.1,10.6-1c0.2,0.1,0.5,0.2,0.6,0
		c0.2-0.3,1-0.7,1.1-0.8c1-0.5,3-0.9,3.5,0.8c0.2,0.9-0.7,1.4-1.6,1.4c-0.8,0-0.5-0.4-1.2-0.4c-0.3,0-0.5,0-0.8,0.1
		c-0.1,0-0.1,0.2,0,0.2c1.1,0,1.5,0.5,2.3,1.3c0.5,0.3,0.9-0.2,1.1-0.4c0.6-0.5,1.3-1.3,1.4-1.7c0-0.2,0-0.5,0-0.8
		c0-0.1,0.1-0.3,0.2-0.3c0.2,0,0.3-0.1,0.3-0.2c0-0.1-0.1-0.2-0.3-0.3c-0.2-0.2-0.4-0.4-0.4-0.6c-0.4-1.2-0.6-1.9-2.5-1.9
		c-1.4,0-2.2,1.2-2.8,2.3c0,0-1.2-0.8-1.6-1c-1.1-0.8-2.6-1.1-4-1.2c-1.3-0.1-2.7-0.1-4,0.3c-0.9,0.3-1.7,0.8-2.4,1.3
		c-1.4,1-3.2,2.5-3.1,4.4C22.5,15.6,23.3,16.2,24.1,16.8z"/>
	<path class="st0" d="M31.3,22.9c-0.4,0.3-0.7,0.7-1,1.1c-0.4,0.6-0.6,1.3-0.4,2c0,0.1,0.1,0.2,0.2,0.1l0.4-0.7c0,0,0,0,0,0l1.7-2
		l0,0c0.8-0.9,1.8-1.3,2.5-2.7c0.1-0.2,0.1-0.4,0.1-0.6c0-0.2,0.2-0.4,0.4-0.3c0.1,0,0.1-0.5,0-0.5c0,0-0.2-0.1-0.4-0.1
		c-0.1,0-0.2-0.1-0.2-0.2c-0.1-0.2-0.2-0.4-0.3-0.6c-0.1-0.1-0.2,0-0.2,0.1c-0.1,0.2-0.2,0.4-0.5,0.3c-0.3-0.1-0.5-0.2-0.7-0.2
		c-2.7-0.9-3.1-0.7-1.4-2.7l1.8-2.3c0.1-0.1-0.1-0.2-0.1-0.1L31,15.3c-1.8,1.8-2,2-1.5,2.6c0.6,0.6,1.9,1,3.8,1.4
		c0.2,0,0.3,0.2,0.3,0.4c0,0.5-0.2,1-0.8,1.7C32.3,21.9,31.8,22.4,31.3,22.9z"/>
	<path class="st0" d="M39.2,20.1c0,0-0.1,0.2-0.1,0.1c0,0-0.2-0.2-0.2-0.2c-0.1-0.1-0.2-0.2-0.2-0.2c-0.3-0.4-0.7-0.4-1.2-0.4
		c-0.4,0-0.4,0.5-0.1,0.6c0.2,0,0.3,0.1,0.5,0.2c0.3,0.3,0.6,0.6,1,0.7c0.1,0,0.1,0,0.2,0c0.3,0,0.4-0.4,0.3-0.7
		C39.5,20.1,39.3,20,39.2,20.1z"/>
	<path class="st0" d="M31.5,28.3l-0.2-0.1c-0.2-0.1-0.4-0.2-0.5-0.3l-0.4-0.3c-0.7-0.4-1.4,0.6-2.1,0.3c-0.1,0-0.3-0.4-0.2-0.7
		c0.5-0.8,1.2-1.6,1.5-2.5c0.2-0.8-0.1-1.8,0.3-2.6c0.1-0.3,0.3-0.5,0.5-0.8c0.3-0.4,0.8-0.8,1.1-1.2c0.1-0.2-0.1-0.3-0.2-0.2l0,0
		c-0.4,0.3-0.8,0.6-1.1,1c-0.4,0.3-0.9,0.5-1.4,0.4L18.6,20c-1.2-0.2-3.4,0.6-4.4,1.1c-1.6,0.8-3,2-4.2,3.3c0,0-0.1,0.1-0.1,0.1
		c-0.7,0.7-1.6,1.2-2.6,1.2l-2.2,0l-4,0.1l0,1.7c1.3,0.1,2.5,0.3,3.7,0.6c0.6,0.2,1.2,0.4,1.7,0.6C6,28.9,5.5,29,5.3,29.1l-1.2,0.8
		C4,30,3.9,29.8,4,29.8c0.2-0.3,0.4-0.5,0.3-0.7c-0.1-0.2-0.6,0-0.8,0.1c-1.5,0.8-1,1.2-1.7-0.3c-0.1-0.3-0.4-0.5-0.8-0.5l0,2.7
		c0.1,0,0.2,0,0.3,0c0.3,0,0.8-0.2,1.2-0.4c0.2-0.1,0.4,0.1,0.3,0.3c0,0,0,0.1,0,0.1c0,0.2,0.1,0.3,0.3,0.2c0,0,0,0,0,0
		c1.1-0.8,2.5-1.5,3.8-1.8c0.1,0,0.2-0.1,0.2-0.2l0-0.1c0.2,0.1,0.4,0.2,0.6,0.3c0.1,0,0.2,0,0.2,0.4c0.3,1.9,1.5,3.6,2.6,5
		c0.8,1.1,2.2,2,3.4,2.7c0.4,0.2,1.5,0.2,1.6,0.8l0,3.4c0,0.7,0.1,0.9,0.3,1c0.1,0,0.9,0.1,0.9,0c0.1-0.8,0.1-1.4,0.1-2.2
		c0.1-0.7,0.7-2.1,0.3-2.7c-0.3-0.4-0.1-0.5-0.2-0.6c-1.2-0.6-2.4-1.3-3.1-2.4c-1.6-2.2-2.3-2.9-2.3-5.5c0-0.9,0.1-1.7,0.5-2.5
		c1-2.4,3.3-3.5,6-4.1c3.1-0.5,4.5-0.7,8.3,0.4c0.6,0.2,1.4,1.4,1.1,1.9c0,0-1,2.2-0.4,3.4c0.2,0.4,1.2,0.5,1.6,0.3l1-0.7
		c0.3-0.1,0.4-0.1,0.7,0.1c0.2,0.1,0.5,0.3,0.8,0.3l0.5,0.2C31.8,28.8,31.6,28.4,31.5,28.3z"/>
	<path class="st0" d="M26.1,53c-0.2-0.2-0.9-0.6-1.1-0.7l-0.3-0.1L24.5,52c0,0-0.2,0-0.2-0.1c-0.2-0.1-0.5-0.6-0.6-0.8
		c-0.1-0.1-0.1-0.1-0.2-0.2l-3.9-4.5c-0.6-0.5-1.3-1.1-2.1-1.2c0,0-0.3-0.1-0.4-0.4c0,0-0.1-0.4-0.1-0.4c-0.1-0.3,0-1.2,0-1.2
		c0-0.1-1.1,0.2-1.2,0.3l-0.2,2.2c0,0.1,0.1,0.2,0.2,0.3c0.5,0.3,1.2,0.2,1.8,0.3c0.2,0,0.4,0.1,0.6,0.3c0.2,0.1,0.4,0.3,0.5,0.4
		l2.3,2.6l1.4,1.6l1.4,1.7c0.2,0.2,0.4,0.2,0.6,0.3c0.2,0.1,0.5,0.1,0.7,0.3c0.2,0.1,0.6,0.2,0.6,0.5l0,1.1c0,0.6,5,0.2,4.1-0.6
		C27.6,52.7,26.5,53.4,26.1,53z"/>
	<path class="st0" d="M14.5,40.6L13.9,41l-0.7,0.5c-1.9,1.5-0.7,0.5-0.5,0.9c0.3,0.6,1.1,0.8,1.6,1.2l0.7,0.9
		c0.1,0.1,0.4-0.1,0.5-0.2c0.1-0.5-0.2-1-0.5-1.4c0,0-0.4-0.3-0.4-0.3c-0.5-0.5-0.1-0.3,0.3-0.6c0.1-0.1,0.2-0.2,0.3-0.3l0.2-0.7
		C15.6,40.8,14.7,40.5,14.5,40.6z"/>
	<path class="st0" d="M20.5,51.1L20.5,51.1L20.5,51.1L20.5,51.1L20.5,51.1L20.5,51.1L20.5,51.1L20.5,51.1L20.5,51.1
		C20.6,51.1,20.6,51.1,20.5,51.1L20.5,51.1C20.6,51.2,20.6,51.2,20.5,51.1L20.5,51.1L20.5,51.1L20.5,51.1L20.5,51.1
		c0.1,0,0-0.2,0-0.2l-1.1-2.8c0,0,0,0,0,0c-0.2-0.3-0.5-0.5-0.8-0.7c-0.3-0.2-0.6,0.2-0.4,0.4c0,0,0,0,0,0l0.9,1.2c0,0,0,0,0,0
		l0.8,1.8c0,0,0,0,0,0C20,50.9,20.5,51.2,20.5,51.1z"/>
	<path class="st0" d="M22.8,52.6l0,0.2c0,0.5,0.1-0.1-0.3,0.3l-0.1,0c-0.1,0.1-0.2,0-0.3-0.1c0,0,0,0,0,0c-0.3-2.2-1-1.3-0.6-1.7
		c0.1-0.1,0.1-0.2,0-0.3c-0.1,0-0.2,0.1-0.3,0.1c0,0,0,0-0.1,0.1c0,0-0.1,0-0.1,0c0,0,0,0,0,0c0,0-0.1,0-0.1,0c0,0-0.1,0-0.1,0
		c-0.1,0-0.2-0.1-0.2-0.1c0,0,0,0-0.1,0c-0.1,0-0.4-0.1-0.5,0c0,0,0,0.1,0,0.1c0,0,0,0.2,0,0.2c0.1,0.7,0.6,1.3,0.7,2c0,0,0,0,0,0
		l0.1,1.1c0,0.2,0,0.5,0.1,0.7c0.2,0.3,0.5,0.2,0.7,0c0.6-0.6,1.5-1.5,1.5-2.5c0-0.1,0-0.2-0.1-0.3C23.1,52.4,22.8,52.4,22.8,52.6z"
		/>
	<path class="st0" d="M40.9,16.7c-1.8-0.4-3.2,0-4.1-1c-0.1-0.1-0.1-0.3,0-0.4c0.7-0.6,1-1.3,0.5-2.3c-0.1-0.2-0.8-0.4-0.8-0.2
		c0,2-1.8,2.6-2.8,3.4l-0.9,0.7c0,0,0,0,0,0c-0.2,0.1-0.8,0.5-0.7,0.9c0.1,0.2,2.5,1,2.8,1.1c0.7,0.2,1.3,0.5,2,0.5
		c0.3,0,0.7-0.2,1-0.1c0.2,0,0.5,0.2,0.8,0.3c0.1,0.1,0.4-0.3,0.4-0.4L39,18.9c-0.3-0.3-0.6-0.4-1-0.5l0,0c-0.3,0-0.5,0.1-0.8,0
		c-0.6-0.1-1.1-0.4-1.6-0.6c-0.6-0.2-1.2-0.1-1.2-0.4c0-0.3,0.4-0.5,0.8-0.8c0.2-0.1,0.5-0.2,0.8-0.1c2.5,1,3,0.9,4.3,0.9
		C40.5,17.5,41.1,16.7,40.9,16.7z"/>
	<path class="st0" d="M62.3,23.2c-0.8-0.7-1.9-0.9-2.6-1.8L56.2,17c-0.4-0.5-1.3-0.9-1.3-1.6l0-0.3l0.1-0.5c0-0.1,0.5-0.9,0.5-0.9
		c0.2-1.1-0.5-0.6-1.1,0.4c0,0.1-0.1,0.1-0.1,0.1c-0.1,0.1-0.3,0.2-0.4,0.2c-0.1,0-0.2,0-0.2-0.1c0-0.1-1-2.2-1.3-1.9
		c-0.4,0.3-0.5,1.3-0.8,1.8c-0.3,0.5,0.1,0.4-0.4,0.8c-0.3,0.3-0.6,0.5-1,0.6l-3.2,0.5c-0.1,0-0.3,0.1-0.4,0.1
		c0.9-0.6,1.1-0.2,2.4-0.8l0,0c0.2-0.1,0.3-0.3,0.2-0.5c0,0,0,0,0,0c-0.3-0.6,0.5,0,0.8,0.3c0.1,0.1,0.1,0,0.1-0.1
		c0-0.2-0.4-0.5-0.6-0.6c-0.6-0.5-2.8-0.7-2.9-0.4c-0.1,0.2,3,1,1.5,0.9l-2.1-0.3c-0.3-0.1-0.7-0.2-1-0.2c-0.6,0-0.6,0.1-1.2,0.1
		c-0.3,0-1,0.4-0.8,0.4c1.6,0.1,1.9,0.2,2,0.2c0.5,0.2,0.3,0.3,0.5,0.4c0.1,0,0,0.1,0,0.2l-0.3,0c-0.3,0-1.4,0-2,0
		c-0.1,0-0.3,0.1-0.2,0.1c0.1,0,0.2,0.1,0.3,0.1c0.2,0.1,0.3,0.2,0.5,0.3c0.1,0.1,0,0.2-0.1,0.2c-0.5,0-1.7,0-2.1,0.3
		c-0.1,0-0.1,0.1,0.1,0.1c0.4,0,1.1-0.1,1.6,0.2c0.1,0,0.2,0.1,0.2,0.2c0,0.4-0.9,0.5-1.3,0.6c-0.3,0.1-2.1,0.4-2.1,0.6
		c0.1,0.1,0.5,0.1,0.7,0.1c0,0,0.1,0,0.1,0c0,0,0.2,0,0.2,0c0,0.1-0.2,0.3-0.1,0.3c0,0,0,0,0,0c0-0.2,0.2-0.1,0.3-0.2
		c0,0,0.1-0.1,0.1-0.1c0.1,0,0.1-0.1,0.2-0.1c0,0,0.3,0,0.1,0.1c-0.4,0.3-0.9,0.6-1.3,0.9c-1.6,1.1,0.2,0.3,0.2,0.3l2.8-1.1
		c0.1,0,0.1,0,0.2-0.1c0.7-0.2,4.8-1.3,6.5-1.2l0.2,0c0.3,0,1.3-0.8,1.6-0.8c0.2,0,1-1.6,1.7-1.3c0.1,0.1-0.2,0.9,0,1.2l2.7,2.7
		c0.7,1.1,1,4.1,2.3,3.9c0.9-0.1,2.5,0,3,0.8c0.2,0.3,0.3,0.4,0.4,0.7l0,0.2c0,0.2-0.2,0.4-0.3,0.4l-0.1,0c-1.7,0.6-0.7,1.8-1.7,0.7
		c-1.2-1.2-3.2-1.1-4.7-1.4c-0.9-0.2-1.2-0.2-1.2-0.2c-0.1,0-0.2-0.2-0.1-0.1c1.3,0.1,1.5,0,2.8,0.2c0.3,0,0.7,0.1,0.9,0.3
		c0.3,0.2,0.6,0.4,1,0.5c0.3,0.1,0.8-0.1,1.1-0.2l0,0c0.1-0.1,0.2-0.1,0.3,0l0,0c0.1,0.1,0.3,0,0.3-0.1c0-0.1,0-0.3-0.1-0.4
		c0,0-0.2-0.8-0.2-0.8c-0.1,0-0.3,0-0.3,0c-1,0.2-2.9-0.1-2.9-0.1c-0.3-0.1-0.6-0.1-0.9-0.1l-3.6-0.4c-0.3,0-0.7-0.1-1.1-0.2
		c-0.6-0.1-1.1-0.4-1.5-0.8c-0.1-0.1-0.1-0.1-0.2-0.1c-0.2,0.2-0.4,0.4-0.7,0.3c-2.6-0.6-4.6-1.3-7-2c-1-0.3-1.5,0.3-0.7,0.6
		c2.3,1,4.6,1.9,7.5,2.6c0.6,0.1,1,0.6,1,1.2l0,0.1c0.1,1.2-1.6,2.1-2.6,2.8c-0.1,0-0.1,0.1-0.2,0.1c-1.2,1-2,1.8-2.6,2.6
		c0,0-0.1,0-0.1,0c0.3-0.7,0.6-1.5,0.7-1.9c0.1-0.2,0.1-0.3,0.2-0.5l1.2-2c0.1-0.2-0.1-0.3-0.2-0.2c0,0-1.3,0.1-1.6,0.3
		C44.5,26,44.1,26,44,26.2c-0.1,0.4-0.1,1.4-0.2,1.9c-0.1,0.2-0.1,0.4-0.2,0.5c-0.3,0.5-1.1,1.5-0.9,1.9c0,0,0.8,0.7,0.8,0.7
		c0.1,0,0.1,0.1,0.1,0.2c-0.9,1.5-1.3,2.9-2.2,4.4c-0.1,0.1,0.1,0.2,0.2,0.1l1.2-1.1c0.1-0.1,0.2,0,0.3,0.1c0,0.2,0,0.4-0.1,0.6
		l-0.3,0.4L42,36.7c-0.2,0.4-0.2,0.7-0.6,0.8c-0.5,0.1-1.3,0.2-1.4,0.8c-0.1,1.1,1.3,1.7,2,2.1l2.5,1.8l1.9,1.5
		c0.1,0.1,0.2,0.3,0.2,0.5c0,0,0,0.1,0,0.1c0,0.1,0.1,0.2,0.2,0.2c0.1,0,0.2,0,0.2,0.1c0.3,0.4-0.3,1-0.6,1.4
		c-0.7,1.1-2.1,1.5-3.2,2.2l-1.9,1.1c-0.6,0.3-1.5,0.4-2.2,0.4c0,0-0.1,0-0.1-0.1c-0.1-0.3,0.3-0.7,0.6-1.1c0.1-0.2,0.4-0.2,0.6-0.1
		l0.5,0.3c0.1,0.1,0.3,0.1,0.5,0.1l0.2,0c0.6-0.1,0.9-0.5,1.4-0.9l2.2-1.9c0,0,0.2-0.1,0-0.3c-0.1-0.1-0.6,0.1-0.6,0.2
		c-0.2,0.1-0.3,0.1-0.4,0.1l-1.9,1.3c-0.3,0.2-1.4-1-1.7-0.6c-0.1,0.1,0.4,0.4,0.5,0.5c0.7,0.8-1.1,0.2-1.9-0.3
		c-0.1-0.1-0.2-0.1-0.4,0c-0.2,0-0.3-0.1-0.3-0.3l0.1-1.3c0.1-0.9,0.3-1.8,0.5-2.7c0.1-0.2,0.3-0.3,0.5-0.3l4.1,3.1
		c0.3,0.2,0.7,0.3,1.1,0.1c0.1-0.1,0.4-0.1,0.6-0.1c0.2,0,0.3-0.3,0.1-0.3c-0.8-0.4-1.6-1.1-1.7-2c0-0.3-0.4-0.5-0.6-0.6
		c-1.3-0.3-2.9-2.9-4.2-3.4l-1.2-1.1c-0.5-0.5-1.1-3.1-1.8-3.4c-0.5-0.2-1.4,0.8-3.5,0.9c-0.7,0-1.4,0-2.1-0.2
		c-2.7-0.6-5.4-1.3-7.6-3.1c-0.4-0.3-0.7-0.7-1-1.1c-0.3-0.7-0.6-0.6-0.9-1.4c-0.1-0.3-0.3,1.4-0.3,1.7L20.6,33
		c0,0.6-0.1,1.3-0.3,1.9c-0.3,1.5-1.2,3.1-1.6,4.6c-0.5,1.7-0.8,4.5-0.5,5c2.1,2.8,2.7,3.2,5.8,6.2c0.1,0.1,0.8,0.3,0.7,0.2
		l-0.8-1.4c-0.2-0.4-0.5-0.7-0.8-1l-2.2-1.8c-0.8-0.6-1.7-4.2-1.2-5.1l3.1-5.7c0.1-0.2,0.4-0.3,0.6-0.1l0,0c0.1,0.1-0.2,0.4-0.2,0.5
		c-0.2,0.9-0.5,1.2-1.3,2l-1.1,1.5c-0.2,0.2,0,0.6,0.3,0.5l1.6-0.8c0.8-0.4,1.4-1.2,1.9-1.8c0.3-0.4,0.8-0.5,1.2-0.3
		c1.7,0.8,3.6,1.3,5.5,1.8l3.3,0.4c0.5,0.1,1,0.1,1.4,0.3c0.8,0.4,0.8,1.8,1.6,2.1l0.4,0.1c0.6,0.2,0.9,0.9,0.7,1.5l-0.9,2.5
		c-0.2,0.7-0.2,1.4,0,2.1l0.1,0.1c0,0.1,0-0.1,0,0c-0.1,0.1-0.1,0.1-0.2,0.1l-3.4,0.6c-0.3,0.1-0.6,0.1-0.9,0.3l-1.1,0.4
		c-0.7,0.3-1.9,0.5-2.7,0.6l-2,0.1c-0.2,0,0-0.3-0.4-0.3c-0.3,0-0.6,0.2-0.4,0c0.6-0.7,1.9,0.1,2.2-0.5c0.1-0.2-0.2-0.1-0.2-0.4
		c0-0.3,0.8,0.4,1.4,0.5c0.6,0.1,1.3,0.2,1.9,0l3.8-1.6c0.6-0.2,1.9-1,1.6-1.9l-0.1-0.3c-0.3-1.1-0.5-2.2-0.5-3.3c0-0.3,0-0.6,0-0.8
		c0-0.3-0.3-0.8-0.5-1.2c-0.1-0.2-0.2-0.3-0.4-0.5l-0.3-0.2c0-0.1-0.1-0.1-0.1,0c0.2,0.6,0.4,1.2,0.2,1.8c-0.3,0.9-0.3,1.8-0.2,2.7
		c0.1,0.5,0.1,0.9,0.2,1.4c0.1,0.5-0.2,1-0.7,1.2l0,0l-3.4,1.4c-0.8,0.3-2.5,0.2-3.5,0.1c-0.3,0-0.5,0.3-0.3,0.5l0,0
		c0.1,0.2,0,0.4-0.2,0.3l-1.2-0.4c-0.5-0.2-1,1.4-1.1,1.9c-0.1,0.3-0.1,0.9,0.1,1.1c0.4,0.6,1.1-0.4,1.5-0.5
		c1.6-0.2,3.2,0.3,4.7-0.3l1.7-0.8c0.3-0.1,0.6-0.2,0.9-0.3l3-0.6c0.2,0,0.3,0.1,0.3,0.3c-0.1,0.5-0.1,1,0.1,1.2
		c0.4,0.6,1-0.1,1.4-0.1c1-0.2,2.1-0.1,3.1-0.4c0.1,0,0.2-0.1,0.3-0.1l1.8-1.2c1.1-0.8,3-1.4,3.3-2.9c0.1-0.5,0.2-1.1-0.1-1.5
		c-0.1-0.2-0.3-0.4-0.5-0.5l-1.8-2.1c-0.1-0.1-0.2-0.2-0.3-0.3l-3-2.5c-0.2-0.2-0.3-0.4-0.3-0.6c0-0.1,0-0.1,0.1-0.1
		c0.4-0.1,0.6-0.2,0.8-0.5l0.7-1.5l0.8-1.6l0.6-1.5c0.1-0.4,0.3-0.8,0.5-1.2l1.2-1.7c0.3-0.5,0.7-0.9,1.1-1.3l2.7-2.8
		c0.5-0.6,0.8-1.1,1.6-1.4c1-0.3,2.5,0.3,3.4,0.5l3.9,0.9c0.4,0.1,0.6,0.6,0.8,0.9c0.4,0.4,0.9,0.5,1.4,0.4c0.5-0.1,0.3-1,0.5-1.4
		c0.2-0.4,0.7,0,1-0.1c0.2-0.1,0.3-0.4,0.3-0.7C63,24.7,63,23.7,62.3,23.2z"/>
</g>
</svg>
