<?xml version="1.0" encoding="utf-8"?>
<!-- Generator: Adobe Illustrator 22.0.1, SVG Export Plug-In . SVG Version: 6.00 Build 0)  -->
<svg version="1.1" id="Layer_1" xmlns="http://www.w3.org/2000/svg" xmlns:xlink="http://www.w3.org/1999/xlink" x="0px" y="0px"
	 viewBox="0 0 100 100" style="enable-background:new 0 0 100 100;" xml:space="preserve">
<style type="text/css">
	.st0{fill:#00AEEF;}
</style>
<g>
	<path class="st0" d="M49.7,95c-6,0-22.7-2.3-27.7-3.9c-5-1.5-11.1-4.7-12.2-5.6c-1.1-0.9-1.1-1.4-1.1-1.4v-7.8c0,0,0.2-2.3,1.3-4.3
		s6-4,6-4s6.4-2.5,8.2-2.6c1.8-0.1,9.9-3.4,9.9-3.4L49.7,88h0.6L65.8,62c0,0,8.2,3.3,9.9,3.4C77.5,65.5,84,68,84,68s4.9,2,6,4
		c1.1,2,1.3,4.3,1.3,4.3v7.8c0,0,0,0.5-1.1,1.4c-1.1,0.9-7.1,4.1-12.2,5.6C73,92.7,56.3,95,50.3,95H49.7z M74.1,69.8l1.9,16.7
		c0,0,0.2,0.2,2-0.3c1.8-0.5,3.4-1,4.1-1.4c0.7-0.4,3-1.1,3.3-1.9v-5.2c0,0,0.1-3-0.5-3.4C84.3,73.7,78.1,70.2,74.1,69.8z
		 M14.5,74.2c-0.5,0.5-0.5,3.4-0.5,3.4v5.2c0.4,0.9,2.6,1.6,3.4,1.9c0.7,0.4,2.3,0.9,4.1,1.4c1.8,0.5,2,0.3,2,0.3l1.9-16.7
		C21.2,70.2,15,73.7,14.5,74.2z M69.3,81.9h-9.7V85h9.7V81.9z"/>
	<path class="st0" d="M54.8,70.6c0,0,1.1,1.1,2,1.2c0.9,0.1,1.5-1,1.5-1v-7.9c0,0-0.5-0.7-1.4-0.8c-0.9,0-0.7,0-1.3,0.2
		c-0.7,0.2-2.6,2.3-2.6,2.3C52.3,63.6,51.2,63,50,63c-1.3,0-2.4,0.7-3,1.6c0,0-2-2.1-2.6-2.4C43.7,62,43.9,62,43,62
		c-0.9,0-1.4,0.8-1.4,0.8v7.9c0,0,0.6,1.1,1.5,1c0.9-0.1,2-1.2,2-1.2l2.1-1.9c0.6,0.8,1.6,1.3,2.7,1.3c1.1,0,2-0.5,2.7-1.2
		L54.8,70.6z"/>
	<path class="st0" d="M69.6,26.1l-0.4,5.2c0,0,1.7,0.5,2.2,1.3c0.5,0.8,1,4.6,0.2,6.8c-0.8,2.2-1.1,2.7-2,3.6
		c-1,0.9-1.7,1.2-2.1,1.3c-1.5,0.5-0.9,0.6-1.6,2.3c-0.7,1.7-0.5,2.8-3.2,5.5c-2.7,2.7-5.7,4.4-7.4,5.1c-1.7,0.7-4.5,1.2-4.5,1.2
		h-1.2c0,0-2.8-0.5-4.5-1.2c-1.7-0.7-4.7-2.4-7.4-5.1c-2.7-2.7-2.5-3.8-3.2-5.5c-0.7-1.7-0.2-1.9-1.6-2.3c-0.4-0.1-1.1-0.4-2.1-1.3
		c-0.9-0.9-1.2-1.4-2-3.6c-0.8-2.2-0.3-5.9,0.2-6.8c0.5-0.8,2.2-1.3,2.2-1.3l-0.4-5.2c0,0-0.1-6.9-0.1-8c0.1-1.2,0.4-2.8,0.9-3.4
		c0.5-0.6,3.1-3.5,3.7-4c0.6-0.5,0.4-0.3,0.9-0.9C36.5,9.3,36,9.2,35.7,9s-0.4-0.1,1.1-0.6c1.5-0.5,3-1.3,4.3-1.6
		c1.3-0.4,4-0.6,6.6-0.6c2.7-0.1,1.2-0.4,0.7-0.9s1.5-0.2,4,0s3.3,0.1,5.1,0.8c1.8,0.7,3.5,2.7,4.2,3.7c0.3,0.4,0.3,0.5,0.3,0.5
		s1.4-0.1,2.9,0c1.5,0.1,1.8,0.1,2.6,1c0.8,0.9,1.6,2.3,1.8,4.6s0.6,3.7,0.6,5.7S69.6,26.1,69.6,26.1z"/>
</g>
</svg>
