<?xml version="1.0" encoding="utf-8"?>
<!-- Generator: Adobe Illustrator 22.0.1, SVG Export Plug-In . SVG Version: 6.00 Build 0)  -->
<svg version="1.1" id="Capa_1" xmlns="http://www.w3.org/2000/svg" xmlns:xlink="http://www.w3.org/1999/xlink" x="0px" y="0px"
	 viewBox="0 0 512 512" style="enable-background:new 0 0 512 512;" xml:space="preserve">
<style type="text/css">
	.st0{fill:#00AEEF;}
	.st1{fill:#00AEEF;stroke:#2E4053;stroke-width:0.5;stroke-miterlimit:10;}
</style>
<path id="XMLID_1_" class="st0" d="M511.5,161.3L426,480.1c-1.9,6.9-8.1,11.5-15,11.5c-1.3,0-2.7-0.2-4-0.5l-209-56
	c-8.3-2.2-13.2-10.7-11-19l2.3-8.4c1.4-5.3,6.9-8.4,12.2-7c5.3,1.4,8.4,6.9,7,12.2l-1.1,4.2L408,470.7l83.2-310.4l-85.1-22.8
	c-5.3-1.4-8.4-6.9-7-12.2s6.9-8.4,12.2-7l89.3,23.9C508.8,144.5,513.7,153,511.5,161.3z M183.5,61.9c-5.5,0-9.9,4.4-9.9,9.9v9.5
	c0,5.5,4.4,9.9,9.9,9.9s9.9-4.4,9.9-9.9v-9.5C193.4,66.3,188.9,61.9,183.5,61.9z M310.2,195.2c2.4,3.4,2.4,8,0,11.5l-46.1,65.1
	c-1.9,2.6-4.9,4.2-8.1,4.2c-3.2,0-6.3-1.6-8.1-4.2l-46.1-65.1c-2.4-3.4-2.4-8,0-11.5l46.1-65.1c1.9-2.6,4.9-4.2,8.1-4.2
	c3.2,0,6.3,1.6,8.1,4.2L310.2,195.2z M289.9,200.9L256,153l-33.9,47.9l33.9,47.9L289.9,200.9z M378.8,420.5l-2.4,9.1
	c-1.4,5.3,1.7,10.8,7,12.2c0.9,0.2,1.7,0.3,2.6,0.3c4.4,0,8.4-2.9,9.6-7.4l2.4-9.1c1.4-5.3-1.7-10.8-7-12.2
	C385.7,412,380.2,415.2,378.8,420.5z M124.1,238.4c2.8-0.8,5.6-1.2,8.2-1.3V35.9c0-8.5,6.9-15.5,15.5-15.5h216.4
	c8.5,0,15.5,6.9,15.5,15.5v201.2c2.6,0.1,5.4,0.6,8.2,1.3c18.2,4.9,29.1,23.7,24.2,41.9c-4.7,17.6-19.8,31-32.4,40.2V366
	c0,8.5-7,15.5-15.5,15.5H147.8c-8.5,0-15.5-7-15.5-15.5v-45.4c-12.6-9.2-27.7-22.6-32.4-40.2c-2.4-8.8-1.2-18.1,3.4-26
	C107.9,246.5,115.3,240.8,124.1,238.4z M379.7,294.9c7.2-6.8,11.5-13.3,13.2-19.7c2-7.6-2.5-15.5-10.2-17.6
	c-1.2-0.3-2.2-0.5-3.1-0.6V294.9z M152.2,361.6h207.6v-46c0-0.1,0-0.2,0-0.3v-66.2c0-0.1,0-0.3,0-0.4V40.3H152.2v208.4
	c0,0.1,0,0.3,0,0.4v66.1c0,0.1,0,0.2,0,0.3V361.6z M119.1,275.2c1.7,6.4,6,12.9,13.2,19.7V257c-0.9,0.1-1.9,0.3-3.1,0.6
	c-3.7,1-6.8,3.4-8.7,6.7C118.6,267.6,118.1,271.5,119.1,275.2z M191.7,447.3L104,470.7L20.9,160.4l85.1-22.8c5.3-1.4,8.4-6.9,7-12.2
	c-1.4-5.3-6.9-8.4-12.2-7l-89.3,23.9c-4,1.1-7.3,3.6-9.4,7.2c-2.1,3.6-2.6,7.8-1.6,11.8L86,480.1c1.1,4,3.6,7.3,7.2,9.4
	c2.4,1.4,5,2.1,7.7,2.1c1.3,0,2.7-0.2,4-0.5l91.9-24.6c5.3-1.4,8.4-6.9,7-12.2C202.4,449,197,445.8,191.7,447.3z M56.6,173.1
	c-5.3,1.4-8.4,6.9-7,12.2l2.4,9.1c1.2,4.4,5.2,7.4,9.6,7.4c0.9,0,1.7-0.1,2.6-0.3c5.3-1.4,8.4-6.9,7-12.2l-2.4-9.1
	C67.4,174.9,62,171.7,56.6,173.1z M328.5,310.7c-5.5,0-9.9,4.4-9.9,9.9v9.5c0,5.5,4.4,9.9,9.9,9.9s9.9-4.4,9.9-9.9v-9.5
	C338.5,315.1,334,310.7,328.5,310.7z"/>
<g>
	<g>
		<g>
			<path class="st1" d="M406,315c-52.9,0-96,43.1-96,96c0,52.9,43.1,96,96,96c52.9,0,96-43.1,96-96C502,358.1,458.9,315,406,315z
				 M490.6,405.4h-22.9c-1.2-12.8-6.3-24.6-14.1-33.9l16.2-16.2C481.7,368.8,489.3,386.2,490.6,405.4z M411.6,326.4
				c19.1,1.3,36.6,8.9,50.2,20.8l-16.2,16.2c-9.4-7.8-21.1-12.9-33.9-14.1V326.4z M400.4,326.4v22.9c-12.8,1.2-24.6,6.3-33.9,14.1
				l-16.2-16.2C363.8,335.3,381.2,327.7,400.4,326.4z M342.3,355.2l16.2,16.2c-7.8,9.4-12.9,21.1-14.1,33.9h-22.9
				C322.7,386.2,330.3,368.8,342.3,355.2z M321.4,416.6h22.9c1.2,12.8,6.3,24.6,14.1,33.9l-16.2,16.2
				C330.3,453.2,322.7,435.8,321.4,416.6z M400.4,495.6c-19.1-1.3-36.6-8.9-50.2-20.8l16.2-16.2c9.4,7.8,21.1,12.9,33.9,14.1V495.6z
				 M355.4,411c0-27.9,22.7-50.6,50.6-50.6c27.9,0,50.6,22.7,50.6,50.6c0,27.9-22.7,50.6-50.6,50.6
				C378.1,461.6,355.4,438.9,355.4,411z M411.6,495.6v-22.9h0c12.8-1.2,24.6-6.3,33.9-14.1l16.2,16.2
				C448.2,486.7,430.8,494.3,411.6,495.6z M469.7,466.8l-16.2-16.2c7.8-9.4,12.9-21.1,14.1-34h22.9
				C489.3,435.7,481.7,453.2,469.7,466.8z"/>
		</g>
	</g>
	<g>
		<g>
			<path class="st1" d="M406,405.4c-3.1,0-5.6-2.5-5.6-5.6c0-2.3,1.3-4.3,3.4-5.2c2.5-1.1,5.5-0.2,8.3,2.5c2.2,2.2,5.8,2.1,8-0.1
				c2.2-2.2,2.1-5.8-0.1-8c-2.5-2.5-5.4-4.2-8.3-5.2v-6.6c0-3.1-2.5-5.6-5.6-5.6c-3.1,0-5.6,2.5-5.6,5.6v6.6c-0.3,0.1-0.6,0.2-1,0.4
				c-6.3,2.6-10.3,8.8-10.3,15.5c0,9.3,7.6,16.9,16.9,16.9c3.1,0,5.6,2.5,5.6,5.6c0,2.4-1.5,4.5-3.7,5.3c-2.9,1.1-6.3-0.4-9.2-3.9
				c-2-2.4-5.5-2.7-7.9-0.7c-2.4,2-2.7,5.5-0.7,7.9c3,3.6,6.6,6.1,10.3,7.4v6.5c0,3.1,2.5,5.6,5.6,5.6c3.1,0,5.6-2.5,5.6-5.6v-6.6
				c0.1,0,0.1,0,0.2-0.1c6.6-2.4,11.1-8.8,11.1-15.9C422.9,412.9,415.3,405.4,406,405.4z"/>
		</g>
	</g>
</g>
</svg>
