<?xml version="1.0" encoding="iso-8859-1"?>
<!-- Generator: Adobe Illustrator 19.0.0, SVG Export Plug-In . SVG Version: 6.00 Build 0)  -->
<svg xmlns="http://www.w3.org/2000/svg" xmlns:xlink="http://www.w3.org/1999/xlink" version="1.1" id="Capa_1" x="0px" y="0px" viewBox="0 0 512 512" style="enable-background:new 0 0 512 512;" xml:space="preserve" width="512px" height="512px">
<g>
	<g>
		<path d="M89.82,84.289L69.942,37.218c-1.564-3.703-5.193-6.11-9.212-6.11c-4.02,0-7.649,2.407-9.212,6.11L31.643,84.29    c-2.148,5.088,0.235,10.954,5.323,13.103c5.086,2.148,10.954-0.234,13.102-5.322l10.665-25.255l10.664,25.254    c1.612,3.818,5.317,6.113,9.217,6.112c1.297,0,2.616-0.254,3.886-0.79C89.586,95.243,91.969,89.376,89.82,84.289z" fill="#00aeef"/>
	</g>
</g>
<g>
	<g>
		<path d="M251.998,124.303c-5.523,0-10,4.477-10,10v0.443c0,5.522,4.477,10,10,10s10-4.477,10-10v-0.443    C261.998,128.78,257.521,124.303,251.998,124.303z" fill="#00aeef"/>
	</g>
</g>
<g>
	<g>
		<path d="M225.433,257.545c-5.087-2.147-10.954,0.235-13.103,5.322l-10.665,25.255l-10.663-25.255    c-2.149-5.088-8.014-7.471-13.103-5.322c-5.088,2.148-7.471,8.015-5.322,13.103l19.876,47.072c1.564,3.703,5.193,6.11,9.212,6.11    c4.019,0,7.649-2.407,9.212-6.11l19.876-47.072C232.903,265.56,230.521,259.694,225.433,257.545z" fill="#00aeef"/>
	</g>
</g>
<g>
	<g>
		<path d="M401.998,189.322c-49.364,0-91.234,32.686-105.112,77.552c-16.187,13.765-27.804,31.575-33.883,51.368    c-0.34,0.289-0.67,0.586-1.005,0.879v-58.032l94.255-94.255c3.905-3.905,3.905-10.237,0-14.143l-94.255-94.255V10    c0-5.523-4.477-10-10-10H10.005c-5.523,0-10,4.477-10,10v334.002c0,5.523,4.477,10,10,10h48.437l47.251,47.251    c1.953,1.953,4.512,2.929,7.071,2.929c2.559,0,5.119-0.976,7.071-2.929l47.251-47.251h68.194    c-7.153,14.745-10.982,31.088-10.982,48.002c0,60.652,49.345,109.997,109.997,109.997c48.283,0,91.046-31.781,105.138-77.667    c15.603-13.27,27.561-30.887,33.84-51.306c23.678-20.19,38.723-50.224,38.723-83.708    C511.994,238.667,462.65,189.322,401.998,189.322z M411.914,209.871c17.359,1.912,33.244,8.779,46.211,19.152l-11.782,11.782    c-9.841-7.476-21.615-12.52-34.429-14.258V209.871z M455.457,299.32c0,29.477-23.982,53.459-53.459,53.459    c-29.478,0-53.459-23.982-53.459-53.459c0-29.478,23.982-53.46,53.459-53.46S455.457,269.842,455.457,299.32z M391.915,209.89    v16.679c-12.76,1.76-24.482,6.8-34.285,14.253l-11.781-11.781C358.779,218.69,374.612,211.828,391.915,209.89z M357.622,357.812    c9.804,7.456,21.529,12.498,34.293,14.259v16.68c-17.307-1.939-33.143-8.804-46.074-19.157L357.622,357.812z M368.553,404.111    c-0.136,0.002-0.271,0.01-0.407,0.01c-22.208,0-41.293-13.616-49.357-32.936C331.889,386.332,349.046,397.872,368.553,404.111z     M312.575,309.467h16.681v0c1.767,12.726,6.797,24.417,14.228,34.199l-11.782,11.782    C321.373,342.538,314.522,326.735,312.575,309.467z M331.709,243.183l11.781,11.782c-7.493,9.859-12.542,21.66-14.272,34.504    h-16.677C314.443,272.08,321.317,256.167,331.709,243.183z M323.771,409.153c9.804,7.456,21.53,12.498,34.293,14.259v16.68    c-17.307-1.938-33.143-8.803-46.075-19.156L323.771,409.153z M292.052,302.561c0.3,10.306,2.022,20.26,4.981,29.674    c-0.73,2.823-1.286,5.685-1.675,8.575h-16.672C280.178,327.083,284.773,314.045,292.052,302.561z M309.631,395.007l-11.782,11.782    c-10.329-12.91-17.179-28.712-19.126-45.981h16.681v0C297.171,373.534,302.201,385.226,309.631,395.007z M112.763,380.04    l-26.038-26.038H138.8L112.763,380.04z M241.998,334.002H20.005V19.999h0h221.993v79.677c0,5.523,4.477,10,10,10s10-4.477,10-10    V86.721l73.042,73.042l-73.042,73.042v-63.798c0-5.523-4.477-10-10-10s-10,4.477-10,10V334.002z M258.201,353.907    c0.3,10.305,2.023,20.259,4.981,29.671c-0.73,2.823-1.286,5.686-1.675,8.574h-16.672    C246.327,378.429,250.923,365.39,258.201,353.907z M263.999,458.131c-10.329-12.909-17.18-28.711-19.126-45.98h16.681    c1.767,12.726,6.797,24.417,14.228,34.199L263.999,458.131z M324.212,491.434c-17.307-1.938-33.143-8.803-46.075-19.156    l11.782-11.782c9.804,7.456,21.53,12.498,34.293,14.259V491.434z M334.294,455.464c-22.209,0-41.293-13.617-49.357-32.937    c13.1,15.147,30.259,26.687,49.766,32.927C334.567,455.456,334.431,455.464,334.294,455.464z M344.21,491.434v-16.651h0.001    c12.48-1.706,24.363-6.613,34.447-14.262l11.761,11.761C377.334,482.719,361.38,489.524,344.21,491.434z M404.591,458.168    l-2.823-2.823c2.266-0.731,4.506-1.525,6.711-2.398C407.244,454.738,405.946,456.478,404.591,458.168z M378.063,440.091v-16.651    c12.481-1.706,24.363-6.613,34.447-14.262l11.759,11.759C411.183,431.374,395.229,438.18,378.063,440.091z M438.44,406.824    l-2.782-2.782c2.237-0.721,4.445-1.504,6.617-2.362C441.057,403.443,439.777,405.158,438.44,406.824z M411.914,388.768v-16.677    c12.818-1.739,24.595-6.784,34.438-14.264l11.781,11.781C445.165,379.986,429.277,386.856,411.914,388.768z M472.27,243.163    c10.401,12.989,17.281,28.908,19.183,46.305h-16.677c-1.731-12.853-6.787-24.66-14.288-34.524L472.27,243.163z M472.278,355.467    l-11.782-11.781c7.44-9.786,12.476-21.484,14.244-34.219h16.681C489.472,326.744,482.615,342.554,472.278,355.467z" fill="#00aeef"/>
	</g>
</g>
<g>
	<g>
		<path d="M170.316,108.254c-7.149-1.259-14.605-0.719-21.561,1.563c-6.643,2.179-12.771,5.941-17.721,10.882    c-0.02,0.02-0.04,0.04-0.059,0.06c-0.161-0.18-0.328-0.355-0.501-0.523c-10.256-9.961-24.73-14.464-38.771-12.041    c-2.096,0.375-4.174,0.896-6.202,1.556c-17.822,5.854-30.073,22.377-30.484,41.098c-0.292,12.251,4.585,24.177,13.386,32.767    c2.572,2.793,34.508,38.009,53.313,58.752c2.355,2.598,5.715,4.089,9.22,4.092c0.003,0,0.005,0,0.009,0    c3.5,0,6.86-1.486,9.216-4.078c24.502-26.947,51.098-56.18,53.421-58.693c8.795-8.548,13.679-20.462,13.407-32.73    C206.534,129.855,191.113,111.897,170.316,108.254z M179.543,169.459c-1.23,1.258-7.14,7.738-48.59,53.322    c-41.307-45.563-47.242-52.093-48.481-53.364l0.008-0.008c-4.908-4.73-7.631-11.322-7.47-18.102    c0.225-10.279,6.949-19.342,16.704-22.547c1.132-0.368,2.311-0.663,3.447-0.867c7.497-1.294,15.261,1.038,20.907,6.245    c1.252,1.623,3.311,4.347,5.891,7.793c2.108,2.817,5.465,4.498,8.98,4.498c0.001,0,0.003,0,0.005,0    c3.517-0.001,6.874-1.686,8.982-4.507c1.473-1.972,4.054-5.416,5.641-7.463c2.672-2.545,5.917-4.489,9.419-5.637    c3.841-1.26,7.943-1.56,11.862-0.87c0.003,0,0.007,0.001,0.011,0.002c11.418,1.997,19.885,11.854,20.134,23.442    c0.15,6.782-2.568,13.363-7.458,18.055L179.543,169.459z" fill="#00aeef"/>
	</g>
</g>
<g>
</g>
<g>
</g>
<g>
</g>
<g>
</g>
<g>
</g>
<g>
</g>
<g>
</g>
<g>
</g>
<g>
</g>
<g>
</g>
<g>
</g>
<g>
</g>
<g>
</g>
<g>
</g>
<g>
</g>
</svg>
