<?xml version="1.0" encoding="utf-8"?>
<!-- Generator: Adobe Illustrator 22.0.1, SVG Export Plug-In . SVG Version: 6.00 Build 0)  -->
<svg version="1.1" id="Layer_1" xmlns="http://www.w3.org/2000/svg" xmlns:xlink="http://www.w3.org/1999/xlink" x="0px" y="0px"
	 viewBox="0 0 64 64" style="enable-background:new 0 0 64 64;" xml:space="preserve">
<style type="text/css">
	.st0{fill:#00AEEF;}
</style>
<g>
	<polygon class="st0" points="43.7,26.1 39.8,15.6 27.2,12.6 19.2,21.1 23,33.5 35,35.6 	"/>
	<polygon class="st0" points="37.9,47.9 47.9,49.7 56,41 54,29.5 44.9,27.2 36.2,36.7 	"/>
	<polygon class="st0" points="9.5,21.2 4.4,31 7.7,41.5 16.2,43.4 21.5,34.1 17.6,21.7 	"/>
	<path class="st0" d="M60.8,20.5c-0.1-0.2-0.1-0.3-0.2-0.5C55.9,8.9,44.9,1,32,1C14.9,1,1,14.9,1,32c0,17.1,13.9,31,31,31
		c17.1,0,31-13.9,31-31C63,28,62.2,24.1,60.8,20.5z M29.6,61.2c-2.7-0.2-5.3-0.8-7.7-1.7c-0.3-0.1-0.6-0.2-0.9-0.3l0.1-0.4l3.8-0.3
		l-0.1-4.4l-8.6-9L8,43.2l0.5,6.3c-0.3-0.4-0.6-0.8-0.9-1.3C4.4,43.6,2.6,38,2.6,32c0-0.2,0.1-1.7,0.1-1.9H3L8.3,20l2.3-8.1
		c0.4-0.4,0.8-0.8,1.2-1.2c0.2-0.2,2.4-2.1,3.3-2.7l6.3-2.8l0,0l1.3-0.6l0,0l3.8-1.5c1-0.2,2.1-0.3,3.2-0.4c0.6,0,1.2-0.1,1.8-0.1
		l0.1,0.2l-7.8,3.2l3.7,4.9L40.3,14l6.3-3.9l-4.2-5.4l0.1,0C43,4.8,43.4,5,43.9,5.2C44.5,5.4,45,5.7,45.5,6l3.1,4.1l8.6,9.5l1.4,0.2
		c0.1,0.3,0.3,0.6,0.4,0.9c0.1,0.3,0.2,0.6,0.3,0.9l-1.9-0.3l-1.9,7.6l2,11.8l2.3,0.6c-0.1,0.3-0.2,0.5-0.3,0.8
		c-2.3,6.4-6.8,11.7-12.5,15.2c-0.3,0.2-0.6,0.4-0.9,0.6l1.1-6.5l-10-1.8l-10.8,4.8l0.1,4.6l4.1,1.9l-0.1,0.5
		C30.1,61.3,29.9,61.3,29.6,61.2z"/>
</g>
</svg>
