<?xml version="1.0" encoding="utf-8"?>
<!-- Generator: Adobe Illustrator 22.0.1, SVG Export Plug-In . SVG Version: 6.00 Build 0)  -->
<svg version="1.1" id="Layer_1" xmlns="http://www.w3.org/2000/svg" xmlns:xlink="http://www.w3.org/1999/xlink" x="0px" y="0px"
	 viewBox="0 0 64 64" style="enable-background:new 0 0 64 64;" xml:space="preserve">
<style type="text/css">
	.st0{fill:#00AEEF;}
	.st1{fill:#00AEEF;stroke:#2E4053;stroke-width:0.1;stroke-miterlimit:10;}
</style>
<g>
	<path class="st0" d="M12.6,13.6v-2.9c0-0.9-0.7-1.7-1.7-1.7C10,9,9.2,9.8,9.2,10.7v2.9c0,0.9,0.7,1.7,1.7,1.7
		C11.8,15.3,12.6,14.5,12.6,13.6z"/>
	<path class="st0" d="M33.7,48.7c-0.9,0-1.7,0.7-1.7,1.7v2.9c0,0.9,0.7,1.7,1.7,1.7c0.9,0,1.7-0.7,1.7-1.7v-2.9
		C35.3,49.4,34.6,48.7,33.7,48.7z"/>
	<path class="st0" d="M59.2,12L42.1,4.9C41.2,3.2,39.6,2,37.6,2H7C4.2,2,2,4.3,2,7v50c0,2.7,2.2,5,5,5h30.6c2.6,0,4.7-1.9,5-4.4
		c0.2-0.2,0.3-0.4,0.4-0.7l18.6-38.5C62.7,15.8,61.6,13.1,59.2,12z M39.2,57c0,0.9-0.7,1.7-1.7,1.7H7c-0.9,0-1.7-0.7-1.7-1.7V7
		C5.3,6.1,6,5.3,7,5.3h30.6c0.9,0,1.7,0.7,1.7,1.7L39.2,57L39.2,57z M42.6,50V8.8l15.2,6.3c0.8,0.4,1,1.2,0.7,1.9L42.6,50z"/>
</g>
<path class="st1" d="M59.8,47.6c0.5-1.1,0.7-2.3,0.7-3.5c0-4.9-4-8.8-8.8-8.8c-1.1,0-2.1,0.2-3,0.5c-1.5-2.5-4.3-4.2-7.5-4.2
	c-4.9,0-8.8,4-8.8,8.8c0,2.6,1.1,4.9,2.8,6.5c-0.4,1-0.6,2.1-0.6,3.3c0,4.9,4,8.8,8.8,8.8c0.9,0,1.9-0.2,2.8-0.4
	c1.6,2.4,4.3,4,7.4,4c4.9,0,8.8-4,8.8-8.8C62.4,51.3,61.4,49.2,59.8,47.6z M61.5,53.7c0,0.3,0,0.7-0.1,1h-2.2c0.1-0.3,0.1-0.7,0.1-1
	s0-0.7-0.1-1h2.2C61.4,53,61.5,53.4,61.5,53.7z M59,51.8c-0.6-1.6-1.9-3-3.5-3.5V46c2.9,0.7,5.1,3,5.8,5.8
	C61.2,51.8,59,51.8,59,51.8z M53.5,58.6c-2.7,0-4.9-2.2-4.9-4.9s2.2-4.9,4.9-4.9s4.9,2.2,4.9,4.9C58.4,56.4,56.2,58.6,53.5,58.6z
	 M47.9,54.7h-2.2c0-0.3-0.1-0.7-0.1-1s0-0.7,0.1-1h2.2c-0.1,0.3-0.1,0.7-0.1,1S47.8,54.4,47.9,54.7z M40.5,54.1
	c0.4,0.3,0.8,0.5,1.3,0.7v3.1c-1.2-0.2-2.3-0.8-3.2-1.5L40.5,54.1z M39.3,50.1c0-0.4,0.1-0.8,0.2-1.1c0.6,0.1,1.1,0.2,1.7,0.2
	c1.1,0,2.1-0.2,3.1-0.5c0.3,0.6,0.8,1.1,1.2,1.6c-0.5,1.1-0.7,2.3-0.7,3.5c0,0.1,0,0.2,0,0.3c-0.4,0.2-0.9,0.2-1.4,0.2
	C41.1,54.2,39.3,52.4,39.3,50.1z M33.2,40.4c0-0.3,0-0.7,0.1-1h2.2c-0.1,0.3-0.1,0.7-0.1,1s0,0.7,0.1,1h-2.2
	C33.3,41,33.2,40.7,33.2,40.4z M35.7,38.5h-2.3c0.2-0.8,0.5-1.5,0.9-2.2l1.6,1.6C35.9,38.1,35.8,38.3,35.7,38.5z M35.7,42.3
	c0.1,0.2,0.2,0.4,0.2,0.6l-1.6,1.6c-0.4-0.7-0.7-1.4-0.9-2.2C33.4,42.3,35.7,42.3,35.7,42.3z M36.3,40.4c0-2.7,2.2-4.9,4.9-4.9
	s4.9,2.2,4.9,4.9s-2.2,4.9-4.9,4.9S36.3,43.1,36.3,40.4z M38.7,35.2l-1.6-1.6c0.7-0.4,1.4-0.7,2.2-0.9V35
	C39.1,35,38.9,35.1,38.7,35.2z M43.1,34.9v-2.3c0.8,0.2,1.5,0.5,2.2,0.9l-1.6,1.6C43.5,35.1,43.3,35,43.1,34.9z M51.8,39.2
	c2.7,0,4.9,2.2,4.9,4.9c0,0.5-0.1,0.9-0.2,1.3c-0.9-0.3-1.9-0.5-2.9-0.5c-2.2,0-4.1,0.8-5.7,2.1c-0.1-0.2-0.2-0.3-0.3-0.5
	c1.5-1.6,2.5-3.7,2.5-6.1c0-0.3,0-0.6,0-0.8C50.5,39.3,51.1,39.2,51.8,39.2z M53.6,38.6v-2.3c0.8,0.2,1.5,0.5,2.2,0.9l-1.6,1.6
	C54.1,38.8,53.9,38.7,53.6,38.6z M59.7,44.1c0,0.3,0,0.7-0.1,1h-2.2c0.1-0.3,0.1-0.7,0.1-1s0-0.7-0.1-1h2.2
	C59.7,43.4,59.7,43.7,59.7,44.1z M57.7,46h1.7c-0.1,0.3-0.2,0.7-0.3,1C58.7,46.6,58.2,46.2,57.7,46z M57.2,42.2
	C57.1,42,57,41.8,57,41.6l1.6-1.6c0.4,0.7,0.7,1.4,0.9,2.2L57.2,42.2L57.2,42.2z M53.5,48c-0.3,0-0.7,0-1,0.1v-2.2
	c0.3,0,0.7-0.1,1-0.1s0.7,0,1,0.1v2.2C54.2,48,53.9,48,53.5,48z M45.9,49.4c-0.3-0.3-0.6-0.7-0.8-1.1c0.7-0.3,1.3-0.7,1.8-1.2
	c0.1,0.2,0.2,0.3,0.3,0.5C46.7,48.1,46.2,48.7,45.9,49.4z M41.2,46.1c0.3,0,0.7,0,1-0.1v2.2c-0.3,0-0.7,0.1-1,0.1s-0.7,0-1-0.1V46
	C40.5,46.1,40.8,46.1,41.2,46.1z M43.1,45.8c0.2-0.1,0.4-0.2,0.6-0.2l1.6,1.6c-0.7,0.4-1.4,0.7-2.2,0.9L43.1,45.8L43.1,45.8z
	 M49.1,40.4c0,0.3,0,0.7-0.1,1h-2.2c0.1-0.3,0.1-0.7,0.1-1s0-0.7-0.1-1H49C49.1,39.7,49.1,40,49.1,40.4z M46.6,42.3h2.3
	c-0.2,0.8-0.5,1.5-0.9,2.2l-1.6-1.6C46.4,42.7,46.5,42.5,46.6,42.3z M45.9,43.7l1.6,1.6c-0.4,0.5-0.9,1-1.4,1.4l-1.6-1.6
	C45,44.7,45.5,44.2,45.9,43.7z M46.6,38.5c-0.1-0.2-0.2-0.4-0.2-0.6l1.6-1.6c0.4,0.7,0.7,1.4,0.9,2.2C48.9,38.5,46.6,38.5,46.6,38.5
	z M39.3,45.8v2.3c-0.8-0.2-1.5-0.5-2.2-0.9l1.6-1.6C38.9,45.6,39.1,45.7,39.3,45.8z M48.1,51.8h-2.3c0.7-2.9,3-5.1,5.8-5.8v2.3
	C50,48.9,48.7,50.2,48.1,51.8z M58,39.2l-1.6,1.6c-0.4-0.6-0.9-1-1.4-1.4l1.6-1.6C57.1,38.2,57.6,38.7,58,39.2z M52.8,36.2v2.2
	c-0.3-0.1-0.7-0.1-1-0.1s-0.7,0-1,0.1v-2.2c0.3,0,0.7-0.1,1-0.1C52.1,36.1,52.4,36.2,52.8,36.2z M49.9,36.4v2.3l0,0
	c-0.1-0.7-0.4-1.4-0.7-2.1C49.4,36.5,49.6,36.4,49.9,36.4z M47.4,35.5l-1.6,1.6c-0.4-0.6-0.9-1-1.4-1.4l1.6-1.6
	C46.6,34.5,47,35,47.4,35.5z M42.2,32.5v2.2c-0.3-0.1-0.7-0.1-1-0.1s-0.7,0-1,0.1v-2.2c0.3,0,0.7-0.1,1-0.1S41.9,32.5,42.2,32.5z
	 M36.3,34.1l1.6,1.6c-0.6,0.4-1,0.9-1.4,1.4l-1.6-1.6C35.3,35,35.8,34.5,36.3,34.1z M34.9,45.2l1.6-1.6c0.4,0.6,0.9,1,1.4,1.4
	l-1.6,1.6C35.8,46.2,35.3,45.7,34.9,45.2z M38.6,48.8c-0.1,0.4-0.2,0.7-0.2,1.1h-3c0-0.9,0.2-1.7,0.5-2.5
	C36.7,48,37.6,48.5,38.6,48.8z M35.5,50.8h3c0.1,1.1,0.6,2,1.3,2.7l-1.9,2.3C36.5,54.5,35.6,52.8,35.5,50.8z M43.4,58.1
	c-0.2,0-0.5,0-0.7,0v-3c0.2,0,0.5,0.1,0.7,0.1c0.5,0,1-0.1,1.4-0.2c0.1,1,0.4,2,0.9,2.8C44.9,57.9,44.2,58.1,43.4,58.1z M45.8,55.6
	h2.3c0.6,1.6,1.9,3,3.5,3.5v2.3C48.8,60.7,46.5,58.5,45.8,55.6z M52.5,61.6v-2.2c0.3,0.1,0.7,0.1,1,0.1s0.7,0,1-0.1v2.2
	c-0.3,0-0.7,0.1-1,0.1S52.9,61.6,52.5,61.6z M55.4,61.4v-2.3c1.6-0.6,3-1.9,3.5-3.5h2.3C60.5,58.5,58.3,60.7,55.4,61.4z"/>
<g>
	<g transform="translate(-196.000000, -444.000000)">
		<g transform="translate(197.000000, 445.000000)">
			<g>
				<path class="st0" d="M23.7,41h-5.2c-0.5,0-0.9-0.2-1.1-0.6c-0.2-0.4-0.2-0.9,0-1.3L18,38c0.3-0.5,0.4-0.7,0.4-1
					c-0.5,0.3-1.1,0.4-1.9,0.4c-2-0.1-3.5-1.2-4.6-3.2c-1.4-2.6-1-5.6,1.1-7.6l6.8-7.1c0.8-0.7,1.9-0.7,2.6,0l6.8,7.2
					c1.7,1.6,3,4.6,1.1,7.8c-1.1,1.8-2.8,2.9-4.8,2.9c-0.7,0-1.2-0.1-1.6-0.3c0,0.3,0.1,0.5,0.4,0.9l0.6,1.1c0.2,0.4,0.2,0.9,0,1.3
					C24.6,40.8,24.2,41,23.7,41z M19,40L19,40C19,40,19,40,19,40z M19.5,39.2h3.3l-0.1-0.2c-0.4-0.6-0.6-1.1-0.6-2v-1.2
					c0-0.5,0.3-0.9,0.7-1.1c0.4-0.2,0.9-0.1,1.3,0.2l0,0c0,0,0,0,0,0l0.2,0.2c0.4,0.4,0.5,0.5,1.1,0.5c1.7-0.1,2.7-1.2,3.3-2.1
					c1.4-2.3,0.5-4.3-0.8-5.5l-6.8-7.2c0,0,0,0-0.1,0L14.3,28c-1.2,1.1-2,3.1-0.8,5.4c0.8,1.5,1.8,2.2,3.1,2.2c0.8,0,1-0.2,1.6-0.7
					c0.3-0.3,0.9-0.4,1.3-0.2c0.4,0.2,0.7,0.6,0.7,1.1v1.2c0,0.9-0.3,1.4-0.6,2L19.5,39.2z M22.8,36.2L22.8,36.2L22.8,36.2z"/>
			</g>
		</g>
	</g>
</g>
</svg>
