<?xml version="1.0" encoding="utf-8"?>
<!-- Generator: Adobe Illustrator 22.0.1, SVG Export Plug-In . SVG Version: 6.00 Build 0)  -->
<svg version="1.1" id="Layer_1" xmlns="http://www.w3.org/2000/svg" xmlns:xlink="http://www.w3.org/1999/xlink" x="0px" y="0px"
	 viewBox="0 0 64 64" style="enable-background:new 0 0 64 64;" xml:space="preserve">
<style type="text/css">
	.st0{fill:#00AEEF;}
</style>
<g>
	<path class="st0" d="M57,49h-6h-1H39v-8.1c2.3,3.7,6.4,6.1,11,6.1c7.2,0,13-5.8,13-13s-5.8-13-13-13c-4.6,0-8.7,2.4-11,6.1V4
		c0-1.7-1.3-3-3-3H4C2.3,1,1,2.3,1,4v56c0,1.7,1.3,3,3,3h30h2h27v-8h-6V49z M55,51v4h-4v-4H55z M49,59v2h-4v-4h5h1h4v4h-4v-2H49z
		 M39,60v-3h4v4h-4.2C38.9,60.7,39,60.4,39,60z M49,55h-4v-4h4V55z M43,51v4h-4v-4H43z M39.1,35h2c0.5,4.2,3.8,7.5,7.9,7.9v2
		C43.7,44.5,39.5,40.3,39.1,35z M50,27c3.9,0,7,3.1,7,7c0,3.9-3.1,7-7,7s-7-3.1-7-7C43,30.1,46.1,27,50,27z M51,44.9v-2
		c4.2-0.5,7.5-3.8,7.9-7.9h2C60.5,40.3,56.3,44.5,51,44.9z M60.9,33h-2c-0.5-4.2-3.8-7.5-7.9-7.9v-2C56.3,23.5,60.5,27.7,60.9,33z
		 M49,23.1v2c-4.2,0.5-7.5,3.8-7.9,7.9h-2C39.5,27.7,43.7,23.5,49,23.1z M34,61H4c-0.6,0-1-0.4-1-1V4c0-0.6,0.4-1,1-1h32
		c0.6,0,1,0.4,1,1v45v8v3c0,0.6-0.4,1-1,1H34z M61,57v4h-4v-4H61z"/>
	<rect x="47" y="33" class="st0" width="6" height="2"/>
	<rect x="5" y="5" class="st0" width="4" height="2"/>
	<rect x="31" y="57" class="st0" width="4" height="2"/>
	<path class="st0" d="M29.1,27.8L20,19.7l-9.1,8.2C9.7,28.9,9,30.5,9,32.2c0,3.2,2.6,5.8,5.8,5.8H15c0.7,0,1.4-0.1,2-0.4V42h6v-4.4
		c0.6,0.2,1.3,0.4,2,0.4h0.2c3.2,0,5.8-2.6,5.8-5.8C31,30.5,30.3,28.9,29.1,27.8z M21,40h-2v-3.6c0,0,0.1-0.1,0.1-0.1l0.9-0.9
		l0.9,0.9c0,0,0.1,0.1,0.1,0.1V40z M25.2,36H25c-1,0-2-0.4-2.7-1.1L20,32.6l-2.3,2.3C17,35.6,16,36,15,36h-0.2
		c-2.1,0-3.8-1.7-3.8-3.8c0-1.1,0.5-2.1,1.3-2.9l7.7-7l7.7,7c0.8,0.7,1.3,1.8,1.3,2.9C29,34.3,27.3,36,25.2,36z"/>
</g>
</svg>
