<svg xmlns="http://www.w3.org/2000/svg" xmlns:xlink="http://www.w3.org/1999/xlink" preserveAspectRatio="xMidYMid" width="185" height="170" viewBox="0 0 185 170">
  <defs>
    <style>

      .cls-2 {
        fill: #000000;
        opacity: 0.1;
      }
    </style>
  </defs>
  <path d="M184.867,116.463 C184.867,116.463 163.637,196.332 163.637,196.332 C163.127,198.249 161.172,199.416 159.236,198.893 C159.236,198.893 2.675,156.605 2.675,156.605 C0.772,156.091 -0.385,154.120 0.134,152.169 C0.134,152.169 21.355,72.333 21.355,72.333 C21.874,70.382 23.668,69.821 23.668,69.821 C23.668,69.821 58.580,57.038 58.580,57.038 C58.580,57.038 73.032,2.671 73.032,2.671 C73.542,0.753 75.497,-0.413 77.433,0.110 C77.433,0.110 172.151,25.693 172.151,25.693 C174.053,26.207 175.210,28.178 174.692,30.130 C174.692,30.130 160.240,84.497 160.240,84.497 C160.240,84.497 184.134,113.164 184.134,113.164 C184.134,113.164 185.419,114.520 184.867,116.463 ZM30.909,74.878 C30.909,74.878 48.296,95.728 48.296,95.728 C48.296,95.728 56.309,65.584 56.309,65.584 C56.309,65.584 30.909,74.878 30.909,74.878 ZM166.811,31.787 C166.811,31.787 79.068,8.087 79.068,8.087 C79.068,8.087 53.975,102.491 53.975,102.491 C53.975,102.491 89.763,144.682 89.763,144.682 C89.763,144.682 141.717,126.190 141.717,126.190 C141.717,126.190 166.811,31.787 166.811,31.787 ZM157.969,93.043 C157.969,93.043 149.956,123.187 149.956,123.187 C149.956,123.187 175.355,113.893 175.355,113.893 C175.355,113.893 157.969,93.043 157.969,93.043 ZM89.836,152.346 C89.128,152.588 87.363,152.904 85.898,151.283 C85.898,151.283 26.551,80.912 26.551,80.912 C26.551,80.912 8.048,150.520 8.048,150.520 C8.048,150.520 157.634,190.924 157.634,190.924 C157.634,190.924 176.137,121.316 176.137,121.316 C176.137,121.316 89.836,152.346 89.836,152.346 ZM139.505,69.377 C139.505,69.377 84.037,54.395 84.037,54.395 C82.101,53.872 80.986,51.876 81.496,49.958 C82.005,48.040 83.961,46.874 85.897,47.397 C85.897,47.397 141.366,62.379 141.366,62.379 C143.268,62.893 144.425,64.865 143.907,66.816 C143.397,68.733 141.441,69.900 139.505,69.377 ZM86.888,29.671 C87.398,27.754 89.353,26.587 91.289,27.110 C91.289,27.110 146.758,42.092 146.758,42.092 C148.660,42.606 149.818,44.578 149.299,46.529 C148.789,48.447 146.834,49.613 144.898,49.090 C144.898,49.090 89.429,34.108 89.429,34.108 C87.493,33.585 86.369,31.623 86.888,29.671 ZM138.523,87.069 C138.013,88.987 136.058,90.153 134.122,89.630 C134.122,89.630 78.653,74.648 78.653,74.648 C76.717,74.125 75.602,72.129 76.112,70.212 C76.622,68.294 78.577,67.127 80.513,67.650 C80.513,67.650 135.982,82.633 135.982,82.633 C137.884,83.146 139.042,85.118 138.523,87.069 Z" id="path-1" class="cls-2" fill-rule="evenodd"/>
</svg>
