<?xml version="1.0" encoding="utf-8"?>
<!-- Generator: Adobe Illustrator 21.1.0, SVG Export Plug-In . SVG Version: 6.00 Build 0)  -->
<svg version="1.1" xmlns="http://www.w3.org/2000/svg" xmlns:xlink="http://www.w3.org/1999/xlink" x="0px" y="0px"
	 viewBox="0 0 412 108" style="enable-background:new 0 0 412 108;" xml:space="preserve">
<style type="text/css">
	.st0{display:none;}
	.st1{display:inline;fill:#FFFFFF;}
	.st2{fill:#272624;}
	.st3{fill:none;}
	.st4{fill:#00AB54;}
</style>
<g id="Background" class="st0">
	<rect x="-49.1" y="-90.7" class="st1" width="510.2" height="510.2"/>
</g>
<g id="Dark">
	<g id="Favicon_1_">
	</g>
</g>
<g id="White">
	<g>
		<g>
			<path class="st2" d="M256.2,59.4c-2.1,0-4.1-0.3-6-0.8c-2-0.5-3.7-1.3-5.2-2.4c-1.5-1.1-2.7-2.5-3.7-4.3
				c-0.9-1.7-1.4-3.8-1.4-6.2v-6.1c0-2.5,0.5-4.7,1.4-6.6c0.9-1.9,2.1-3.4,3.6-4.6c1.5-1.2,3.2-2.1,5.2-2.7c1.9-0.6,3.9-0.9,6-0.9
				c1.9,0,3.7,0.3,5.5,0.9c1.8,0.6,3.3,1.4,4.7,2.5c1.4,1.1,2.5,2.5,3.3,4.2c0.8,1.7,1.2,3.7,1.2,5.9v6.4h-20.2V46
				c0,0.9,0.2,1.7,0.6,2.4c0.4,0.7,1,1.3,1.6,1.7c0.7,0.4,1.4,0.8,2.2,1c0.8,0.2,1.7,0.3,2.5,0.3c0.7,0,1.5-0.1,2.3-0.3
				c0.8-0.2,1.7-0.4,2.5-0.7c0.8-0.3,1.5-0.6,2.2-0.9c0.7-0.4,1.2-0.7,1.6-1.1l4,5.9c-1.7,1.8-3.8,3.1-6.2,3.9
				C261.5,59,259,59.4,256.2,59.4z M261,38.6v-1.1c0-1.8-0.5-3-1.5-3.8c-1-0.8-2.2-1.2-3.6-1.2c-1.4,0-2.6,0.4-3.7,1.3
				c-1.1,0.8-1.6,2.2-1.6,4v0.9H261z"/>
			<path class="st2" d="M291.6,59.4c-2.1,0-4.1-0.3-6-0.8c-2-0.5-3.7-1.3-5.2-2.4c-1.5-1.1-2.7-2.5-3.7-4.3
				c-0.9-1.7-1.4-3.8-1.4-6.2v-6.1c0-2.5,0.5-4.7,1.4-6.6c0.9-1.9,2.1-3.4,3.6-4.6c1.5-1.2,3.2-2.1,5.2-2.7c1.9-0.6,3.9-0.9,6-0.9
				c1.9,0,3.7,0.3,5.5,0.9c1.8,0.6,3.3,1.4,4.7,2.5c1.4,1.1,2.5,2.5,3.3,4.2c0.8,1.7,1.2,3.7,1.2,5.9v6.4H286V46
				c0,0.9,0.2,1.7,0.6,2.4c0.4,0.7,1,1.3,1.6,1.7c0.7,0.4,1.4,0.8,2.2,1c0.8,0.2,1.7,0.3,2.5,0.3c0.7,0,1.5-0.1,2.3-0.3
				c0.8-0.2,1.7-0.4,2.5-0.7c0.8-0.3,1.5-0.6,2.2-0.9c0.7-0.4,1.2-0.7,1.6-1.1l4,5.9c-1.7,1.8-3.8,3.1-6.2,3.9
				C296.9,59,294.4,59.4,291.6,59.4z M296.4,38.6v-1.1c0-1.8-0.5-3-1.5-3.8c-1-0.8-2.2-1.2-3.6-1.2c-1.4,0-2.6,0.4-3.7,1.3
				c-1.1,0.8-1.6,2.2-1.6,4v0.9H296.4z"/>
			<path class="st2" d="M312.1,13.7h10.4v24.8l10.3-13h11l-9.9,12l10,21.1h-11.3L326,44.4l-3.5,4.1v10.1h-10.4V13.7z"/>
			<path class="st2" d="M361.9,59.4c-2.1,0-4.1-0.3-6-0.8c-2-0.5-3.7-1.3-5.2-2.4c-1.5-1.1-2.7-2.5-3.7-4.3
				c-0.9-1.7-1.4-3.8-1.4-6.2v-6.1c0-2.5,0.5-4.7,1.4-6.6c0.9-1.9,2.1-3.4,3.6-4.6c1.5-1.2,3.2-2.1,5.2-2.7c1.9-0.6,3.9-0.9,6-0.9
				c1.9,0,3.7,0.3,5.5,0.9c1.8,0.6,3.3,1.4,4.7,2.5c1.4,1.1,2.5,2.5,3.3,4.2c0.8,1.7,1.2,3.7,1.2,5.9v6.4h-20.2V46
				c0,0.9,0.2,1.7,0.6,2.4c0.4,0.7,1,1.3,1.6,1.7c0.7,0.4,1.4,0.8,2.2,1c0.8,0.2,1.7,0.3,2.5,0.3c0.7,0,1.5-0.1,2.3-0.3
				c0.8-0.2,1.7-0.4,2.5-0.7c0.8-0.3,1.5-0.6,2.2-0.9c0.7-0.4,1.2-0.7,1.6-1.1l4,5.9c-1.7,1.8-3.8,3.1-6.2,3.9
				C367.3,59,364.7,59.4,361.9,59.4z M366.7,38.6v-1.1c0-1.8-0.5-3-1.5-3.8c-1-0.8-2.2-1.2-3.6-1.2c-1.4,0-2.6,0.4-3.7,1.3
				c-1.1,0.8-1.6,2.2-1.6,4v0.9H366.7z"/>
			<path class="st2" d="M382.2,25.5h10.2V31h0.1c0.5-0.8,1-1.6,1.8-2.3c0.7-0.7,1.5-1.4,2.4-1.9c0.9-0.5,1.8-1,2.9-1.3
				c1-0.3,2-0.5,3.1-0.5c0.5,0,1,0,1.6,0.1c0.6,0,1.2,0.1,1.7,0.3v8.9c-0.8-0.1-1.6-0.2-2.5-0.3c-0.8-0.1-1.5-0.1-2-0.1
				c-1.1,0-2.2,0.1-3.2,0.4c-1.1,0.3-2,0.7-2.8,1.3c-0.8,0.6-1.5,1.4-2,2.3c-0.5,1-0.8,2.2-0.8,3.6v17.3h-10.4V25.5z"/>
		</g>
		<g>
			<path class="st2" d="M6.2,13.7h22.9c4.5,0,7.8,1,10,3.1c2.2,2.1,3.4,4.8,3.4,8.3c0,2.1-0.5,4.1-1.6,6c-1.1,1.8-2.8,3.2-5.2,4.1
				v0.1c2.5,0.7,4.4,2,5.7,4c1.3,1.9,2,4.1,2,6.5c0,1.8-0.3,3.6-1,5.1c-0.7,1.6-1.6,2.9-2.8,4.1c-1.2,1.1-2.6,2-4.3,2.7
				c-1.7,0.7-3.6,1-5.6,1H6.2V13.7z M26,31.6c1.8,0,3.2-0.5,4.1-1.4c0.9-0.9,1.4-2.1,1.4-3.5c0-1.4-0.5-2.5-1.4-3.2
				c-1-0.8-2.3-1.1-4.1-1.1h-8.4v9.2H26z M26.4,49.7c1.8,0,3.3-0.5,4.2-1.4c1-0.9,1.4-2.2,1.4-3.6c0-1.5-0.5-2.7-1.4-3.5
				c-1-0.8-2.4-1.2-4.3-1.2h-8.9v9.8H26.4z"/>
			<path class="st2" d="M63.9,59.4c-2,0-3.9-0.2-5.8-0.7c-1.9-0.5-3.6-1.3-5.1-2.3c-1.5-1.1-2.7-2.4-3.6-4.1
				c-0.9-1.7-1.4-3.7-1.4-6.1v-7.2c0-2.4,0.5-4.5,1.4-6.2c0.9-1.8,2.1-3.2,3.6-4.4c1.5-1.2,3.1-2,5-2.6c1.9-0.6,3.8-0.9,5.7-0.9
				c2,0,4,0.3,5.9,0.8c1.9,0.5,3.6,1.4,5.1,2.6c1.5,1.2,2.7,2.6,3.6,4.3c0.9,1.7,1.4,3.8,1.4,6.2v6.9c0,2.4-0.5,4.5-1.4,6.2
				c-0.9,1.7-2.2,3.2-3.7,4.3c-1.5,1.1-3.2,2-5.1,2.5C67.6,59.1,65.8,59.4,63.9,59.4z M63.9,51.5c1.5,0,2.7-0.4,3.7-1.3
				c1-0.9,1.5-2.2,1.5-4V38c0-1.6-0.5-2.9-1.5-3.8c-1-1-2.3-1.4-3.8-1.4c-1.5,0-2.7,0.5-3.7,1.4c-1,0.9-1.5,2.3-1.5,4.1v8.1
				c0,1.6,0.5,2.9,1.4,3.8C60.9,51,62.2,51.5,63.9,51.5z"/>
			<path class="st2" d="M85.5,25.5h10.2v4.2h0.1c1.2-1.7,2.7-2.9,4.4-3.7c1.7-0.8,3.6-1.2,5.6-1.2c1.5,0,2.9,0.2,4.2,0.7
				c1.3,0.4,2.5,1.1,3.5,2c1,0.9,1.8,2,2.4,3.4c0.6,1.4,0.9,3,0.9,4.8v22.9h-10.4V39.3c0-1.7-0.4-3.2-1.1-4.4
				c-0.7-1.2-2.1-1.8-4-1.8c-1.6,0-2.8,0.6-3.8,1.7c-1,1.1-1.5,2.9-1.5,5.2v18.7H85.5V25.5z"/>
			<path class="st2" d="M134.2,59.3c-1.5,0-2.9-0.2-4.2-0.7c-1.3-0.4-2.5-1.1-3.5-2c-1-0.9-1.8-2.1-2.4-3.4c-0.6-1.4-0.9-3-0.9-4.8
				V25.5h10.4v19.3c0,1.7,0.4,3.1,1.1,4.4c0.8,1.2,2.1,1.9,4,1.9c1.6,0,2.9-0.6,3.9-1.7c1-1.1,1.5-2.9,1.5-5.2V25.5h10.4v33.1h-10.1
				v-4.5h-0.2c-1.2,1.8-2.7,3.1-4.4,3.9C138.2,58.9,136.3,59.3,134.2,59.3z"/>
		</g>
		<g>
			<g>
				<path class="st3" d="M172,25.9c0,1.3,0.6,2.2,1.8,2.8c0.5,0.3,1.1,0.5,1.7,0.7V22c-0.6,0.2-1.2,0.4-1.7,0.6
					C172.6,23.2,172,24.3,172,25.9z"/>
				<path class="st3" d="M182.1,49.5c0.7-0.3,1.2-0.8,1.6-1.3c0.4-0.5,0.6-1.2,0.6-2c0-1.4-0.5-2.4-1.5-3c-0.7-0.4-1.5-0.8-2.4-1.1
					v8C181.1,49.9,181.6,49.8,182.1,49.5z"/>
				<path class="st4" d="M170.7,48.9c-2-1.1-3.6-2.4-4.8-4.1l-7.1,6.4c2.1,3,4.9,5.1,8.2,6.3c2.6,1,5.5,1.5,8.5,1.7v-8.8
					C173.8,50.1,172.2,49.6,170.7,48.9z"/>
				<path class="st4" d="M183.2,22.7c1.7,0.7,3.1,1.8,4.2,3.2l7.3-6.3c-2-2.4-4.2-4.2-6.8-5.2c-2-0.8-4.5-1.3-7.4-1.5v9
					C181.4,22.1,182.3,22.4,183.2,22.7z"/>
				<path class="st4" d="M173.8,28.7c-1.2-0.6-1.8-1.5-1.8-2.8c0-1.6,0.6-2.6,1.8-3.3c0.5-0.3,1.1-0.5,1.7-0.6v-9
					c-1.5,0.2-2.9,0.5-4.3,0.9c-2.1,0.7-3.9,1.7-5.4,3c-1.5,1.3-2.7,2.8-3.6,4.6c-0.9,1.8-1.3,3.7-1.3,5.8c0,1.8,0.3,3.4,0.8,4.8
					c0.5,1.4,1.3,2.6,2.2,3.6c0.9,1,2.1,1.8,3.4,2.5c1.3,0.7,2.7,1.2,4.2,1.6l3.9,1V29.4C174.9,29.2,174.3,28.9,173.8,28.7z"/>
				<path class="st4" d="M192.9,36.4c-2-2-4.6-3.4-7.8-4.3l-4.6-1.2v11.2c0.9,0.3,1.7,0.7,2.4,1.1c1,0.6,1.5,1.6,1.5,3
					c0,0.8-0.2,1.5-0.6,2c-0.4,0.5-1,1-1.6,1.3c-0.5,0.2-1,0.4-1.6,0.6v9c1.4-0.1,2.7-0.4,4.1-0.8c2.2-0.6,4.1-1.5,5.8-2.8
					c1.7-1.2,3-2.8,4-4.6c1-1.8,1.5-4,1.5-6.4C195.9,41.1,194.9,38.4,192.9,36.4z"/>
			</g>
			<rect x="175.5" y="4.1" class="st4" width="5" height="6.6"/>
			<rect x="175.5" y="61.4" class="st4" width="5" height="6.6"/>
		</g>
		<g>
			<g>
				<path class="st3" d="M212,25.9c0,1.3,0.6,2.2,1.8,2.8c0.5,0.3,1.1,0.5,1.7,0.7V22c-0.6,0.2-1.2,0.4-1.7,0.6
					C212.6,23.2,212,24.3,212,25.9z"/>
				<path class="st3" d="M222.1,49.5c0.7-0.3,1.2-0.8,1.6-1.3c0.4-0.5,0.6-1.2,0.6-2c0-1.4-0.5-2.4-1.5-3c-0.7-0.4-1.5-0.8-2.4-1.1
					v8C221.1,49.9,221.6,49.8,222.1,49.5z"/>
				<path class="st4" d="M210.7,48.9c-2-1.1-3.6-2.4-4.8-4.1l-7.1,6.4c2.1,3,4.9,5.1,8.2,6.3c2.6,1,5.5,1.5,8.5,1.7v-8.8
					C213.8,50.1,212.2,49.6,210.7,48.9z"/>
				<path class="st4" d="M223.2,22.7c1.7,0.7,3.1,1.8,4.2,3.2l7.3-6.3c-2-2.4-4.2-4.2-6.8-5.2c-2-0.8-4.5-1.3-7.4-1.5v9
					C221.4,22.1,222.3,22.4,223.2,22.7z"/>
				<path class="st4" d="M213.8,28.7c-1.2-0.6-1.8-1.5-1.8-2.8c0-1.6,0.6-2.6,1.8-3.3c0.5-0.3,1.1-0.5,1.7-0.6v-9
					c-1.5,0.2-2.9,0.5-4.3,0.9c-2.1,0.7-3.9,1.7-5.4,3c-1.5,1.3-2.7,2.8-3.6,4.6c-0.9,1.8-1.3,3.7-1.3,5.8c0,1.8,0.3,3.4,0.8,4.8
					c0.5,1.4,1.3,2.6,2.2,3.6c0.9,1,2.1,1.8,3.4,2.5c1.3,0.7,2.7,1.2,4.2,1.6l3.9,1V29.4C214.9,29.2,214.3,28.9,213.8,28.7z"/>
				<path class="st4" d="M232.9,36.4c-2-2-4.6-3.4-7.8-4.3l-4.6-1.2v11.2c0.9,0.3,1.7,0.7,2.4,1.1c1,0.6,1.5,1.6,1.5,3
					c0,0.8-0.2,1.5-0.6,2c-0.4,0.5-1,1-1.6,1.3c-0.5,0.2-1,0.4-1.6,0.6v9c1.4-0.1,2.7-0.4,4.1-0.8c2.2-0.6,4.1-1.5,5.8-2.8
					c1.7-1.2,3-2.8,4-4.6c1-1.8,1.5-4,1.5-6.4C235.9,41.1,234.9,38.4,232.9,36.4z"/>
			</g>
			<rect x="215.5" y="4.1" class="st4" width="5" height="6.6"/>
			<rect x="215.5" y="61.4" class="st4" width="5" height="6.6"/>
		</g>
	</g>
	<g id="Favicon">
		<g>
			<path d="M95.5,88.2l4.2-8.1h3.2L97,91v6.9h-2.9V91l-5.9-11h3.2L95.5,88.2z"/>
			<path d="M117,91.1c0,2.2-0.6,3.9-1.7,5.2c-1.1,1.2-2.7,1.9-4.7,1.9c-1.3,0-2.4-0.3-3.3-0.9c-1-0.6-1.7-1.4-2.2-2.5
				c-0.5-1.1-0.8-2.3-0.8-3.7c0-2.2,0.6-3.9,1.7-5.1c1.1-1.2,2.7-1.8,4.7-1.8c2,0,3.5,0.6,4.6,1.9C116.4,87.3,117,89,117,91.1z
				 M107.1,91.1c0,3.1,1.2,4.7,3.5,4.7c2.3,0,3.4-1.6,3.4-4.7c0-3.1-1.1-4.6-3.4-4.6c-1.2,0-2.1,0.4-2.6,1.2
				C107.4,88.5,107.1,89.6,107.1,91.1z"/>
			<path d="M129.8,97.9l-0.4-1.8h-0.1c-0.4,0.6-1,1.1-1.7,1.5c-0.7,0.4-1.6,0.5-2.5,0.5c-1.6,0-2.9-0.4-3.7-1.2
				c-0.8-0.8-1.2-2-1.2-3.7v-8.8h2.9v8.3c0,1,0.2,1.8,0.6,2.3c0.4,0.5,1.1,0.8,2,0.8c1.2,0,2.1-0.4,2.7-1.1c0.6-0.7,0.8-1.9,0.8-3.6
				v-6.7h2.9v13.5H129.8z"/>
			<path d="M143,84.1c0.6,0,1.1,0,1.4,0.1l-0.3,2.7c-0.4-0.1-0.8-0.1-1.3-0.1c-1.1,0-2.1,0.4-2.8,1.1c-0.7,0.7-1.1,1.7-1.1,2.9v7.1
				h-2.9V84.4h2.2l0.4,2.4h0.1c0.4-0.8,1-1.4,1.8-1.9C141.4,84.4,142.2,84.1,143,84.1z"/>
			<path d="M161,88.2h6.6v9c-1.1,0.4-2.1,0.6-3.1,0.7c-1,0.1-2.1,0.2-3.2,0.2c-2.7,0-4.8-0.8-6.3-2.4c-1.5-1.6-2.2-3.9-2.2-6.8
				c0-2.9,0.8-5.1,2.5-6.7c1.7-1.6,3.9-2.4,6.8-2.4c1.9,0,3.6,0.4,5.3,1.1l-1,2.4c-1.4-0.7-2.9-1-4.3-1c-1.9,0-3.4,0.6-4.5,1.8
				c-1.1,1.2-1.7,2.8-1.7,4.9c0,2.2,0.5,3.8,1.5,5c1,1.1,2.4,1.7,4.3,1.7c0.9,0,2-0.1,3-0.4v-4.6H161V88.2z"/>
			<path d="M181.1,97.9l-0.4-1.8h-0.1c-0.4,0.6-1,1.1-1.7,1.5c-0.7,0.4-1.6,0.5-2.5,0.5c-1.6,0-2.9-0.4-3.7-1.2
				c-0.8-0.8-1.2-2-1.2-3.7v-8.8h2.9v8.3c0,1,0.2,1.8,0.6,2.3c0.4,0.5,1.1,0.8,2,0.8c1.2,0,2.1-0.4,2.7-1.1c0.6-0.7,0.8-1.9,0.8-3.6
				v-6.7h2.9v13.5H181.1z"/>
			<path d="M187.3,80.8c0-0.5,0.1-0.9,0.4-1.2c0.3-0.3,0.7-0.4,1.2-0.4c0.5,0,0.9,0.1,1.2,0.4c0.3,0.3,0.4,0.7,0.4,1.2
				c0,0.5-0.1,0.9-0.4,1.2c-0.3,0.3-0.7,0.4-1.2,0.4c-0.5,0-0.9-0.1-1.2-0.4C187.4,81.7,187.3,81.3,187.3,80.8z M190.3,97.9h-2.9
				V84.4h2.9V97.9z"/>
			<path d="M199,98.1c-1.7,0-3-0.6-3.9-1.8c-0.9-1.2-1.4-2.9-1.4-5.1c0-2.2,0.5-3.9,1.4-5.2c1-1.2,2.3-1.8,4-1.8
				c1.8,0,3.1,0.7,4.1,2h0.1c-0.1-1-0.2-1.7-0.2-2.3v-4.9h2.9v19h-2.2l-0.5-1.8H203C202.1,97.4,200.7,98.1,199,98.1z M199.7,95.8
				c1.2,0,2-0.3,2.6-1c0.5-0.7,0.8-1.7,0.8-3.2v-0.4c0-1.7-0.3-2.9-0.8-3.6c-0.6-0.7-1.4-1.1-2.6-1.1c-1,0-1.8,0.4-2.3,1.2
				c-0.5,0.8-0.8,2-0.8,3.5c0,1.5,0.3,2.6,0.8,3.4C197.9,95.4,198.7,95.8,199.7,95.8z"/>
			<path d="M215.9,98.1c-2.1,0-3.7-0.6-4.9-1.8c-1.2-1.2-1.8-2.9-1.8-5.1c0-2.2,0.5-3.9,1.6-5.2c1.1-1.3,2.6-1.9,4.5-1.9
				c1.8,0,3.2,0.5,4.2,1.6c1,1.1,1.5,2.6,1.5,4.5v1.6h-9c0,1.3,0.4,2.3,1.1,3c0.7,0.7,1.6,1.1,2.8,1.1c0.8,0,1.5-0.1,2.2-0.2
				c0.7-0.2,1.4-0.4,2.2-0.8v2.3c-0.7,0.3-1.4,0.6-2.1,0.7C217.6,98,216.8,98.1,215.9,98.1z M215.3,86.3c-0.9,0-1.6,0.3-2.2,0.9
				c-0.5,0.6-0.9,1.4-1,2.5h6.1c0-1.1-0.3-2-0.8-2.5C217,86.6,216.3,86.3,215.3,86.3z"/>
			<path d="M235.9,95.8c0.7,0,1.4-0.1,2.1-0.3v2.2c-0.3,0.1-0.7,0.3-1.2,0.3c-0.5,0.1-1,0.1-1.6,0.1c-2.7,0-4.1-1.4-4.1-4.3v-7.3
				h-1.8v-1.3l2-1l1-2.9h1.8v3h3.8v2.2H234v7.2c0,0.7,0.2,1.2,0.5,1.5C234.9,95.6,235.3,95.8,235.9,95.8z"/>
			<path d="M252.7,91.1c0,2.2-0.6,3.9-1.7,5.2c-1.1,1.2-2.7,1.9-4.7,1.9c-1.3,0-2.4-0.3-3.3-0.9c-1-0.6-1.7-1.4-2.2-2.5
				c-0.5-1.1-0.8-2.3-0.8-3.7c0-2.2,0.6-3.9,1.7-5.1c1.1-1.2,2.7-1.8,4.7-1.8c2,0,3.5,0.6,4.6,1.9C252.1,87.3,252.7,89,252.7,91.1z
				 M242.8,91.1c0,3.1,1.2,4.7,3.5,4.7c2.3,0,3.4-1.6,3.4-4.7c0-3.1-1.1-4.6-3.4-4.6c-1.2,0-2.1,0.4-2.6,1.2
				C243.1,88.5,242.8,89.6,242.8,91.1z"/>
			<path d="M276.8,80v11.5c0,1.3-0.3,2.5-0.8,3.5c-0.6,1-1.4,1.7-2.5,2.3c-1.1,0.5-2.3,0.8-3.8,0.8c-2.2,0-3.9-0.6-5.2-1.8
				c-1.2-1.2-1.8-2.8-1.8-4.8V80h2.9v11.3c0,1.5,0.3,2.6,1,3.3c0.7,0.7,1.7,1,3.1,1c2.8,0,4.1-1.4,4.1-4.3V80H276.8z"/>
			<path d="M280.6,96.3c0-0.6,0.2-1,0.5-1.4c0.3-0.3,0.8-0.5,1.3-0.5c0.6,0,1,0.2,1.4,0.5c0.3,0.3,0.5,0.8,0.5,1.3
				c0,0.6-0.2,1-0.5,1.4c-0.3,0.3-0.8,0.5-1.3,0.5s-1-0.2-1.3-0.5C280.7,97.4,280.6,96.9,280.6,96.3z"/>
			<path d="M298.5,93c0,1.6-0.6,2.8-1.7,3.7c-1.1,0.9-2.7,1.4-4.7,1.4s-3.7-0.3-5-0.9v-2.8c0.8,0.4,1.7,0.7,2.6,0.9
				c0.9,0.2,1.8,0.3,2.6,0.3c1.2,0,2-0.2,2.6-0.7c0.5-0.4,0.8-1,0.8-1.8c0-0.7-0.3-1.2-0.8-1.7c-0.5-0.5-1.5-1-3.1-1.6
				c-1.6-0.7-2.8-1.4-3.4-2.3c-0.7-0.8-1-1.9-1-3.1c0-1.5,0.5-2.7,1.6-3.5c1.1-0.9,2.5-1.3,4.3-1.3c1.7,0,3.4,0.4,5.1,1.1l-0.9,2.4
				c-1.6-0.7-3-1-4.2-1c-0.9,0-1.7,0.2-2.1,0.6c-0.5,0.4-0.7,1-0.7,1.6c0,0.5,0.1,0.9,0.3,1.2c0.2,0.3,0.5,0.6,1,0.9
				c0.4,0.3,1.3,0.7,2.4,1.2c1.3,0.5,2.3,1.1,2.9,1.5c0.6,0.5,1.1,1,1.3,1.6C298.3,91.5,298.5,92.2,298.5,93z"/>
			<path d="M301.2,96.3c0-0.6,0.2-1,0.5-1.4c0.3-0.3,0.8-0.5,1.3-0.5c0.6,0,1,0.2,1.4,0.5c0.3,0.3,0.5,0.8,0.5,1.3
				c0,0.6-0.2,1-0.5,1.4c-0.3,0.3-0.8,0.5-1.3,0.5s-1-0.2-1.3-0.5C301.4,97.4,301.2,96.9,301.2,96.3z"/>
			<path d="M322.6,88.2h6.6v9c-1.1,0.4-2.1,0.6-3.1,0.7c-1,0.1-2.1,0.2-3.2,0.2c-2.7,0-4.8-0.8-6.3-2.4c-1.5-1.6-2.2-3.9-2.2-6.8
				c0-2.9,0.8-5.1,2.5-6.7c1.7-1.6,3.9-2.4,6.8-2.4c1.9,0,3.6,0.4,5.3,1.1l-1,2.4c-1.4-0.7-2.9-1-4.3-1c-1.9,0-3.4,0.6-4.5,1.8
				c-1.1,1.2-1.7,2.8-1.7,4.9c0,2.2,0.5,3.8,1.5,5c1,1.1,2.4,1.7,4.3,1.7c0.9,0,2-0.1,3-0.4v-4.6h-3.7V88.2z"/>
			<path d="M341.6,97.9L341,96h-0.1c-0.7,0.8-1.3,1.4-2,1.7c-0.7,0.3-1.5,0.4-2.5,0.4c-1.3,0-2.4-0.4-3.1-1.1
				c-0.7-0.7-1.1-1.7-1.1-3c0-1.4,0.5-2.4,1.5-3.1c1-0.7,2.6-1.1,4.7-1.2l2.3-0.1v-0.7c0-0.9-0.2-1.5-0.6-1.9
				c-0.4-0.4-1-0.6-1.9-0.6c-0.7,0-1.4,0.1-2,0.3c-0.6,0.2-1.2,0.4-1.8,0.7l-0.9-2.1c0.7-0.4,1.5-0.7,2.4-0.9
				c0.9-0.2,1.7-0.3,2.5-0.3c1.7,0,3,0.4,3.9,1.1c0.9,0.7,1.3,1.9,1.3,3.5v9.1H341.6z M337.3,95.9c1,0,1.9-0.3,2.5-0.9
				c0.6-0.6,0.9-1.4,0.9-2.4v-1.2l-1.7,0.1c-1.4,0-2.3,0.3-2.9,0.7c-0.6,0.4-0.9,1-0.9,1.8c0,0.6,0.2,1.1,0.5,1.4
				C336.1,95.8,336.6,95.9,337.3,95.9z"/>
			<path d="M359,97.9h-2.9v-8.3c0-1-0.2-1.8-0.6-2.3c-0.4-0.5-1-0.8-1.8-0.8c-1.1,0-1.9,0.4-2.4,1.1c-0.5,0.7-0.8,1.9-0.8,3.6v6.7
				h-2.9V84.4h2.2l0.4,1.8h0.1c0.4-0.6,0.9-1.1,1.6-1.5c0.7-0.3,1.5-0.5,2.4-0.5c2.1,0,3.5,0.7,4.1,2.1h0.2c0.4-0.7,1-1.2,1.7-1.6
				c0.7-0.4,1.6-0.6,2.5-0.6c1.6,0,2.8,0.4,3.5,1.2c0.7,0.8,1.1,2.1,1.1,3.7v8.8h-2.9v-8.3c0-1-0.2-1.8-0.6-2.3
				c-0.4-0.5-1-0.8-1.8-0.8c-1.1,0-1.9,0.3-2.4,1c-0.5,0.7-0.8,1.8-0.8,3.2V97.9z"/>
			<path d="M371.4,80.8c0-0.5,0.1-0.9,0.4-1.2c0.3-0.3,0.7-0.4,1.2-0.4c0.5,0,0.9,0.1,1.2,0.4c0.3,0.3,0.4,0.7,0.4,1.2
				c0,0.5-0.1,0.9-0.4,1.2c-0.3,0.3-0.7,0.4-1.2,0.4c-0.5,0-0.9-0.1-1.2-0.4C371.5,81.7,371.4,81.3,371.4,80.8z M374.4,97.9h-2.9
				V84.4h2.9V97.9z"/>
			<path d="M390.4,97.9h-2.9v-8.3c0-1-0.2-1.8-0.6-2.3c-0.4-0.5-1.1-0.8-2-0.8c-1.2,0-2.1,0.4-2.7,1.1c-0.6,0.7-0.8,1.9-0.8,3.6v6.7
				h-2.9V84.4h2.2l0.4,1.8h0.1c0.4-0.6,1-1.1,1.7-1.5c0.7-0.3,1.6-0.5,2.5-0.5c3.2,0,4.9,1.6,4.9,4.9V97.9z"/>
			<path d="M405.8,84.4v1.6l-2.3,0.4c0.2,0.3,0.4,0.6,0.5,1s0.2,0.9,0.2,1.3c0,1.4-0.5,2.5-1.4,3.3c-1,0.8-2.3,1.2-4,1.2
				c-0.4,0-0.8,0-1.2-0.1c-0.6,0.4-0.9,0.8-0.9,1.3c0,0.3,0.1,0.5,0.4,0.7c0.3,0.2,0.8,0.2,1.6,0.2h2.4c1.5,0,2.6,0.3,3.4,1
				c0.8,0.6,1.2,1.6,1.2,2.7c0,1.5-0.6,2.7-1.9,3.5c-1.3,0.8-3.1,1.2-5.5,1.2c-1.8,0-3.2-0.3-4.2-1c-1-0.7-1.5-1.6-1.5-2.8
				c0-0.8,0.3-1.5,0.8-2.1c0.5-0.6,1.3-1,2.2-1.2c-0.4-0.2-0.7-0.4-0.9-0.8c-0.2-0.4-0.4-0.7-0.4-1.1c0-0.5,0.1-0.9,0.4-1.3
				c0.3-0.3,0.7-0.7,1.3-1c-0.7-0.3-1.3-0.8-1.7-1.5c-0.4-0.7-0.7-1.5-0.7-2.4c0-1.5,0.5-2.6,1.4-3.4c0.9-0.8,2.2-1.2,3.9-1.2
				c0.4,0,0.8,0,1.2,0.1c0.4,0.1,0.7,0.1,0.9,0.2H405.8z M395.2,100c0,0.6,0.3,1.1,0.8,1.4c0.6,0.3,1.3,0.5,2.3,0.5
				c1.6,0,2.7-0.2,3.5-0.7c0.8-0.4,1.1-1,1.1-1.8c0-0.6-0.2-1-0.6-1.3c-0.4-0.2-1.2-0.4-2.3-0.4h-2.2c-0.8,0-1.5,0.2-2,0.6
				C395.4,98.8,395.2,99.3,395.2,100z M396.4,88.7c0,0.8,0.2,1.5,0.7,2c0.4,0.5,1.1,0.7,1.9,0.7c1.7,0,2.5-0.9,2.5-2.7
				c0-0.9-0.2-1.6-0.6-2c-0.4-0.5-1-0.7-1.9-0.7c-0.8,0-1.5,0.2-1.9,0.7C396.6,87.1,396.4,87.8,396.4,88.7z"/>
		</g>
	</g>
</g>
<g id="Guidelines" class="st0">
</g>
</svg>
