<?xml version="1.0" encoding="utf-8"?>
<!-- Generator: Adobe Illustrator 16.0.0, SVG Export Plug-In . SVG Version: 6.00 Build 0)  -->
<!DOCTYPE svg PUBLIC "-//W3C//DTD SVG 1.1//EN" "http://www.w3.org/Graphics/SVG/1.1/DTD/svg11.dtd">
<svg version="1.1" id="Layer_1" xmlns="http://www.w3.org/2000/svg" xmlns:xlink="http://www.w3.org/1999/xlink" x="0px" y="0px"
	 width="512px" height="512px" viewBox="0 0 512 512" enable-background="new 0 0 512 512" xml:space="preserve">
<g>
	<path fill="#FFFFFF" d="M363.406,61.078C354.625,39.43,336.531,32,317.312,32c-37.318,0-69.17,23.414-87.305,48.484
		C222.672,70.43,212.016,63.953,200,63.953s-22.672,6.477-30.008,16.531C151.859,55.414,120.008,32,82.688,32
		c-19.219,0-37.313,7.43-46.094,29.078c-16.047,39.516,12.938,75.664,41.375,88.453c33.719,15.18,69.234,11.938,100.148,2.398
		c6.297,4.945,13.797,7.867,21.883,7.867s15.586-2.922,21.883-7.867c30.914,9.539,66.43,12.781,100.148-2.398
		C350.469,136.742,379.453,100.594,363.406,61.078z M133.078,128.938c-29.391-1.203-46.766-23.055-46.766-35.953
		c0-15.336,36.844-25.055,73.906,16.266c-0.039,0.883-0.219,1.727-0.219,2.625c0,5.492,0.93,10.68,2.352,15.594
		C150.961,129.188,138.969,129.172,133.078,128.938z M266.922,128.938c-5.891,0.234-17.883,0.25-29.273-1.469
		c1.422-4.914,2.352-10.102,2.352-15.594c0-0.898-0.18-1.742-0.219-2.625c37.063-41.32,73.905-31.602,73.905-16.266
		C313.688,105.883,296.312,127.734,266.922,128.938z M290.258,304H224V176h144c17.672,0,32,14.328,32,32v40
		C354.922,248,315.023,270.133,290.258,304z M290.258,464H224V320h56.062C269.836,339.094,264,360.867,264,384
		C264,413.922,273.828,441.516,290.258,464z M16,320h160v144H48c-17.672,0-32-14.328-32-32V320z M32,176h144v128H16
		c-8.844,0-16-7.156-16-16v-80C0,190.328,14.328,176,32,176z M400,272c-61.852,0-112,50.148-112,112c0,61.859,50.148,112,112,112
		s112-50.141,112-112C512,322.148,461.852,272,400,272z M466.531,387.398l-59.469,47.646c-1.307,1.047-3.096,1.242-4.604,0.523
		c-1.508-0.729-2.461-2.242-2.461-3.914V400h-56c-4.422,0-8-3.578-8-8v-16c0-4.422,3.578-8,8-8h56v-31.656
		c0-1.672,0.953-3.188,2.461-3.914c1.508-0.719,3.297-0.521,4.604,0.523l59.469,47.647c1.031,0.819,1.625,2.078,1.625,3.397
		S467.562,386.578,466.531,387.398z"/>
</g>
</svg>
